<?xml version="1.0" standalone="no"?>
<!DOCTYPE svg PUBLIC "-//W3C//DTD SVG 20010904//EN"
 "http://www.w3.org/TR/2001/REC-SVG-20010904/DTD/svg10.dtd">
<svg version="1.0" xmlns="http://www.w3.org/2000/svg"
 width="500.000000pt" height="500.000000pt" viewBox="0 0 500.000000 500.000000"
 preserveAspectRatio="xMidYMid meet">
<metadata>
Created by potrace 1.11, written by Peter Selinger 2001-2013
</metadata>
<g transform="translate(0.000000,500.000000) scale(0.100000,-0.100000)"
fill="#000000" stroke="none">
<path d="M0 2500 l0 -2500 500 0 500 0 2 1834 3 1834 70 -95 c39 -52 75 -100
80 -107 6 -6 93 -121 195 -256 101 -135 292 -389 425 -565 397 -527 849 -1127
1009 -1340 83 -110 153 -202 156 -205 3 -3 99 -131 215 -285 115 -154 214
-285 219 -292 6 -6 97 -127 201 -267 l190 -255 618 0 617 -1 0 2500 0 2500
-500 0 -500 0 -2 -1820 -3 -1821 -152 203 c-154 206 -172 229 -209 276 -11 15
-254 338 -539 717 -286 380 -523 695 -527 700 -27 34 -114 150 -343 455 -143
190 -263 350 -268 355 -4 6 -38 51 -75 100 -142 188 -498 661 -509 675 -20 25
-66 87 -93 124 l-25 35 -627 1 -628 0 0 -2500z"/>
</g>
</svg>
