<?xml version="1.0" standalone="no"?>
<!DOCTYPE svg PUBLIC "-//W3C//DTD SVG 1.1//EN" "http://www.w3.org/Graphics/SVG/1.1/DTD/svg11.dtd" >
<svg xmlns="http://www.w3.org/2000/svg" xmlns:xlink="http://www.w3.org/1999/xlink" version="1.1">
<metadata></metadata>
<defs>
<font id="gt_sectra_displaybold" horiz-adv-x="1269" >
<font-face units-per-em="2048" ascent="1536" descent="-512" />
<missing-glyph horiz-adv-x="485" />
<glyph unicode="&#xfb01;" horiz-adv-x="1259" d="M51 0v33l121 16v864h-121v33h121v19q0 92 35 157.5t100 120.5l242 211h569v-274h-33l-233 75h-371l-8 -28q-10 -35 -12 -80t-2 -137v-64h364l252 45h35v-942l109 -16v-33h-504v33l108 16v864h-364v-864l172 -16v-33h-580z" />
<glyph unicode="&#xfb02;" horiz-adv-x="1247" d="M51 913v33h121v19q0 92 35 157.5t100 120.5l242 211h559v-1405l109 -16v-33h-504v33l108 16v864h-362v-864l172 -16v-33h-568v33l109 16v864h-121zM459 946h362v309h-340l-8 -28q-10 -35 -12 -80t-2 -137v-64z" />
<glyph unicode="&#xfb03;" horiz-adv-x="1910" d="M51 0v33l121 16v864h-121v33h121v10q0 90 35 155t100 120l242 211h381l-238 -199h-211l-8 -29q-10 -35 -12 -81t-2 -138v-49h364v19q0 92 35 157.5t100 120.5l244 211h567v-274h-32l-234 75h-370l-7 -28q-10 -35 -13 -80t-3 -137v-64h367l252 45h32v-942l109 -16v-33 h-504v33l109 16v864h-365v-864l172 -16v-33h-580v33l121 16v864h-364v-864l172 -16v-33h-580z" />
<glyph unicode="&#xfb04;" horiz-adv-x="1898" d="M51 0v33l121 16v864h-121v33h121v10q0 90 35 155t100 120l242 211h393l-237 -199h-224l-8 -29q-10 -35 -12 -81t-2 -138v-49h362v19q0 92 35 157.5t100 120.5l244 211h559v-1405l109 -16v-33h-504v33l109 16v864h-365v-864l172 -16v-33h-567v33l108 16v864h-362v-864 l172 -16v-33h-580zM1108 946h365v309h-340l-9 -28q-10 -35 -13 -80t-3 -137v-64z" />
<glyph horiz-adv-x="0" />
<glyph horiz-adv-x="0" />
<glyph unicode="&#xd;" horiz-adv-x="655" />
<glyph unicode=" "  horiz-adv-x="485" />
<glyph unicode="&#x09;" horiz-adv-x="485" />
<glyph unicode="&#xa0;" horiz-adv-x="485" />
<glyph unicode="!" horiz-adv-x="647" d="M164 1454h317l-20 -635l-111 -379h-53l-111 377zM188 133l23 109l170 12l61 -12l15 -129l-27 -113l-168 -14l-61 14z" />
<glyph unicode="&#x22;" horiz-adv-x="854" d="M102 1335l23 111l178 10l70 -10l12 -131l-23 -121l-202 -322l-27 11l150 305l-103 -6l-65 12zM479 1335l23 111l178 10l70 -10l12 -131l-23 -121l-204 -322l-25 11l149 305l-102 -6l-65 12z" />
<glyph unicode="#" horiz-adv-x="1261" d="M82 424l6 53h285l47 383h-283l8 53h281l53 428h60l-54 -428h351l53 428h59l-53 -428h285l-6 -53h-285l-47 -383h284l-8 -53h-282l-52 -424h-59l51 424h-350l-51 -424h-60l52 424h-285zM432 477h350l47 383h-350z" />
<glyph unicode="$" horiz-adv-x="1150" d="M96 90v381h33l111 -264q61 -72 138 -126t177 -54h25v526l-246 164q-51 35 -93 68.5t-73 73.5t-48.5 89t-17.5 113q0 70 26 132t82 114.5t147.5 92.5t222.5 64v135h38v-131q57 0 105.5 -4t92.5 -13t89 -22.5t99 -33.5v-373h-35l-131 297q-47 47 -100.5 73.5t-119.5 30.5 v-501l205 -136q123 -78 179.5 -160.5t56.5 -205.5q0 -143 -100.5 -253t-340.5 -177v-154h-38v141l-54 -12q-127 0 -226 30t-204 95zM371 1212q0 -84 50 -140t136 -109l23 -17v475q-92 -6 -150.5 -60.5t-58.5 -148.5zM618 33q86 16 136.5 74.5t50.5 148.5q0 80 -43 143.5 t-144 128.5v-495z" />
<glyph unicode="%" horiz-adv-x="1697" d="M102 1067q0 86 28 148.5t79 106.5t120.5 72.5t155.5 47.5q70 0 129.5 -24.5t101.5 -69.5t65.5 -108.5t23.5 -141.5q0 -86 -27.5 -148.5t-79 -107.5t-122 -73t-156.5 -46q-70 0 -128.5 24.5t-100 69.5t-65.5 108.5t-24 141.5zM315 -10l1014 1454h68l-1010 -1454h-72z M319 1124q0 -180 38 -271t110 -91q121 0 121 274q0 182 -39 274.5t-111 92.5q-119 0 -119 -279zM893 338q0 86 27.5 148.5t79 106.5t121 72.5t155.5 47.5q70 0 129 -24.5t101 -70t65.5 -109t23.5 -140.5q0 -86 -27.5 -148.5t-78.5 -107.5t-121 -73t-156 -46q-70 0 -128 24.5 t-101 69.5t-66.5 108.5t-23.5 141.5zM1110 395q0 -180 38 -271t109 -91q121 0 121 274q0 182 -38.5 274.5t-110.5 92.5q-119 0 -119 -279z" />
<glyph unicode="&#x26;" horiz-adv-x="1460" d="M92 319q0 74 25.5 134.5t69.5 110.5t105.5 92t135.5 79l-39 43q-49 57 -85 102.5t-57.5 86.5t-31.5 78.5t-10 78.5q0 127 112.5 208t344.5 138q219 0 325.5 -74.5t106.5 -187.5q0 -111 -97.5 -190.5t-281.5 -169.5l313 -373l197 225l-142 17v33h344v-33l-139 -17 l-231 -260l329 -391l84 -16v-33h-393l-211 238q-55 -59 -135 -132t-160 -137q-98 0 -186 24.5t-152.5 71t-102.5 111t-38 143.5zM344 479q0 -59 22.5 -113.5t61.5 -95.5t93.5 -64.5t115.5 -23.5q47 0 92 14.5t92 59.5l15 18l-383 435q-66 -51 -87.5 -112.5t-21.5 -117.5z M477 1249q0 -41 17.5 -85t46 -91t65.5 -95t78 -95l4 -4q39 33 61.5 73.5t34 84.5t14.5 87t3 84q0 92 -46 153.5t-124 61.5t-116 -46t-38 -128z" />
<glyph unicode="'" horiz-adv-x="466" d="M102 1333l23 111l178 12l70 -12l12 -131l-23 -119l-202 -324l-27 11l150 305l-103 -6l-65 14z" />
<glyph unicode="(" horiz-adv-x="638" d="M92 500q0 150 27.5 277.5t87 244.5t155 228.5t230.5 230.5l16 -19q-180 -190 -252.5 -436t-72.5 -526q0 -283 72.5 -529.5t252.5 -435.5l-16 -18q-135 119 -230.5 230.5t-155 228t-87 244.5t-27.5 280z" />
<glyph unicode=")" horiz-adv-x="638" d="M31 -465q88 94 150.5 203.5t101.5 231.5t56 255t17 275q0 139 -17 272t-56 255t-101.5 231.5t-150.5 203.5l14 19q135 -119 231.5 -230.5t156 -228.5t87 -244.5t27.5 -277.5q0 -152 -27.5 -280t-87 -244.5t-156 -228.5t-231.5 -230z" />
<glyph unicode="*" horiz-adv-x="888" d="M92 1116l80 244l266 -217l-123 321h258l-124 -321l268 215l80 -246l-346 21l290 -187l-206 -151l-93 331l-88 -331l-209 151l289 187z" />
<glyph unicode="+" d="M106 492v59h498v504h60v-504h497v-59h-497v-492h-60v492h-498z" />
<glyph unicode="," horiz-adv-x="540" d="M174 145l25 121l184 15l70 -15l16 -141l-27 -127l-198 -301l-35 12l129 283l-82 -6l-68 14z" />
<glyph unicode="-" horiz-adv-x="788" d="M82 524v92h625v-92h-625z" />
<glyph unicode="." horiz-adv-x="520" d="M143 145l25 121l186 15l68 -15l16 -141l-26 -125l-187 -14l-67 14z" />
<glyph unicode="/" horiz-adv-x="950" d="M-20 -471l927 1941h64l-924 -1941h-67z" />
<glyph unicode="0" horiz-adv-x="1212" d="M82 463q0 125 42 214t117.5 152.5t180 104.5t229.5 67q104 0 192.5 -35.5t152 -100t99 -156t35.5 -201.5q0 -125 -41.5 -215t-117.5 -153.5t-181.5 -104.5t-232.5 -66q-104 0 -191 36t-149.5 100.5t-98.5 155.5t-36 202zM385 512q0 -106 11.5 -195.5t38 -155t69.5 -102 t104 -36.5q57 0 96 33.5t63 92t34 137.5t10 171q0 104 -11.5 194t-38 154.5t-69.5 101.5t-106 37q-57 0 -95 -33.5t-61.5 -92t-34 -137.5t-10.5 -169z" />
<glyph unicode="1" horiz-adv-x="899" d="M59 791l521 208h34v-950l250 -16v-33h-794v33l258 16v795l-258 -86z" />
<glyph unicode="2" horiz-adv-x="1069" d="M41 31l283 229q94 74 153.5 139.5t94 124t48 111.5t13.5 102q0 104 -42 153.5t-106 49.5q-25 0 -49 -7t-35 -11l-69 -320h-260v225l483 185q106 0 181 -21.5t121 -57.5t67.5 -83t21.5 -100q-2 -135 -118.5 -249t-350.5 -216l-153 -58h684v-32l-76 -195h-873z" />
<glyph unicode="3" horiz-adv-x="1062" d="M57 612v215l545 185q98 0 163.5 -22.5t106.5 -58.5t58.5 -79t17.5 -84q0 -43 -17.5 -88t-62.5 -88t-123.5 -82t-201.5 -70q117 -2 200.5 -32.5t138 -76.5t79 -102.5t24.5 -109.5q0 -72 -23.5 -126t-70.5 -101.5t-118 -90.5t-165 -88l-393 -182h-152v246h519 q47 53 70.5 104t23.5 127q0 57 -23.5 107.5t-68.5 87.5t-113 58.5t-154 21.5l-10 30l129 88q63 37 103.5 72t63 72t29.5 78t7 90q0 96 -48 152.5t-120 56.5q-23 0 -48.5 -6.5t-37.5 -12.5l-84 -291h-244z" />
<glyph unicode="4" horiz-adv-x="1175" d="M27 25l614 952h369v-33l-936 -911h528v293l287 168v-463h268v-37h-268v-451h-287v451h-553z" />
<glyph unicode="5" horiz-adv-x="1030" d="M74 -215h420q82 72 114.5 145.5t32.5 165.5q0 41 -12.5 82t-39 74t-68.5 52.5t-101 19.5q-29 0 -54.5 -3.5t-50 -10.5t-52 -18t-60.5 -30l-78 -41l-16 15l86 745h747l-49 -240h-690l-56 -481l461 246q92 0 157.5 -26.5t107.5 -69.5t61.5 -97.5t19.5 -109.5 q0 -86 -31.5 -153.5t-85 -122t-122 -98.5t-142.5 -83l-385 -205h-114v244z" />
<glyph unicode="6" horiz-adv-x="1196" d="M86 543q0 145 45 285.5t144.5 263t256 222t377.5 163.5l11 -27q-162 -74 -258.5 -157t-149.5 -177t-72.5 -201.5t-25.5 -230.5v-16l358 254q90 0 153.5 -34t103.5 -88.5t58.5 -123t18.5 -135.5q0 -436 -528 -572q-119 0 -211.5 44t-154.5 122t-94 182.5t-32 225.5z M416 633q4 -315 52 -465t142 -150q90 0 135.5 102.5t45.5 325.5q0 158 -40 235t-110 77q-43 0 -85 -28t-95 -66z" />
<glyph unicode="7" horiz-adv-x="1024" d="M41 737v244h920l22 -29l-606 -1405h-211v29l686 1161h-811z" />
<glyph unicode="8" horiz-adv-x="1167" d="M90 305q0 70 25.5 124t69.5 97t102.5 79t122.5 67l-91 73q-39 33 -75.5 69t-65 77t-46 87t-17.5 99q0 78 35.5 140.5t101 110.5t158 83t206.5 55q205 0 325 -75.5t120 -200.5q0 -111 -77 -198t-251 -161l154 -122q76 -61 133 -139t57 -179q0 -170 -125 -267.5 t-385 -154.5q-94 0 -180 20.5t-152.5 61.5t-105.5 104.5t-39 149.5zM369 340q0 -86 21.5 -147.5t55 -100.5t74.5 -57.5t80 -18.5q31 0 62.5 10.5t57 34t42 63.5t16.5 101q0 86 -43 151.5t-135 143.5l-125 101q-53 -59 -79.5 -127t-26.5 -154zM406 1255q0 -94 56 -171.5 t161 -163.5l59 -48q59 72 74.5 150t15.5 156q0 117 -56.5 178t-146.5 61q-66 0 -114.5 -38t-48.5 -124z" />
<glyph unicode="9" horiz-adv-x="1204" d="M61 444q0 217 133.5 356.5t395.5 209.5q119 0 210 -44t153.5 -121t95 -180.5t32.5 -224.5q0 -145 -48 -286.5t-148.5 -264t-256 -221t-372.5 -162.5l-10 25q147 72 243.5 155t152.5 177t81 202.5t29 233.5v12l-346 -256q-92 0 -157 35t-107 91.5t-61.5 126t-19.5 136.5z M377 565q0 -180 43 -262t117 -82q20 0 35.5 3t33 12.5t38 26t52.5 40.5l56 39q-10 618 -197 619q-86 0 -132 -97.5t-46 -298.5z" />
<glyph unicode=":" horiz-adv-x="550" d="M154 145l24 121l187 15l67 -15l17 -141l-27 -125l-186 -14l-68 14zM154 864l24 121l187 14l67 -14l17 -141l-27 -125l-186 -14l-68 14z" />
<glyph unicode=";" horiz-adv-x="591" d="M154 145l24 121l184 15l70 -15l17 -141l-27 -125l-199 -303l-35 12l142 283l-94 -6l-68 14zM154 864l24 121l187 14l67 -14l17 -141l-27 -125l-186 -14l-68 14z" />
<glyph unicode="&#x3c;" d="M102 565v43l1065 496v-64l-985 -452l985 -453v-65z" />
<glyph unicode="=" d="M100 274v60h1067v-60h-1067zM100 670v59h1067v-59h-1067z" />
<glyph unicode="&#x3e;" d="M102 70v65l985 453l-985 452v64l1065 -496v-43z" />
<glyph unicode="?" horiz-adv-x="892" d="M80 1114v316l254 26q117 -8 200.5 -37.5t138 -76t80 -104t25.5 -120.5q0 -150 -91 -236.5t-257 -148.5l-68 -33l-32 -272h-54l-28 246l67 55q47 39 82 82t57.5 94t34 111.5t11.5 136.5q0 109 -46 182.5t-147 87.5l-151 -309h-76zM168 133l22 109l170 12l62 -12l14 -129 l-26 -113l-168 -14l-62 14z" />
<glyph unicode="@" horiz-adv-x="1929" d="M102 510q0 150 53.5 284t149.5 246.5t228.5 197.5t289.5 134l201 62q203 0 354.5 -42t254 -118t153.5 -182.5t51 -233.5q0 -139 -53 -259t-143.5 -211t-212 -149.5t-259.5 -72.5l-145 133l47 203l-295 -340q-47 6 -90 31.5t-77 67.5t-54 100.5t-20 132.5q0 84 28.5 160.5 t78.5 143t118.5 119t148.5 87.5l217 96l258 -113l-167 -786q74 8 146.5 54t130.5 124t95 186.5t37 243.5q0 121 -43 224.5t-122 178t-189.5 117.5t-245.5 43t-265 -55t-230.5 -157.5t-162 -249t-61.5 -330.5t63.5 -318.5t167 -221.5t232.5 -129t258 -42t228.5 40t162.5 77 l13 -23q-129 -72 -263.5 -123t-236.5 -73q-188 0 -341 55t-261.5 153.5t-168 234.5t-59.5 300zM739 596q0 -98 38 -162.5t110 -93.5l194 211l82 350l-188 105q-68 -41 -114 -91.5t-72.5 -104.5t-38 -109.5t-11.5 -104.5z" />
<glyph unicode="A" horiz-adv-x="1439" d="M10 0v33l119 16l465 1321l244 96l475 -1417l117 -16v-33h-627v33l158 16l-144 453h-477l-156 -453l162 -16v-33h-336zM354 545h449l-215 680z" />
<glyph unicode="B" horiz-adv-x="1292" d="M49 0v33l129 16v1335l-129 17v33h717q98 0 173 -27t124 -71t74.5 -101t25.5 -117q0 -154 -125 -249t-348 -105q145 -4 246.5 -34t164 -78t91.5 -111.5t29 -130.5q0 -190 -141.5 -293t-385.5 -117h-645zM496 49l129 -16q72 0 123 28.5t84.5 78.5t49 117t15.5 144 q0 86 -20.5 149.5t-56.5 105.5t-84 63.5t-103 21.5h-137v-692zM496 778h131q100 0 156.5 95.5t56.5 242.5q0 129 -51.5 207t-151.5 78l-141 -17v-606z" />
<glyph unicode="C" horiz-adv-x="1421" d="M70 682q0 178 54 316.5t155.5 236.5t246 156.5t326.5 76.5q80 0 145.5 -7t122 -20.5t107.5 -31.5t102 -43v-385h-35l-159 334q-49 53 -110.5 84t-156.5 31q-92 0 -172 -44.5t-138 -132.5t-92 -220t-34 -308q0 -152 27.5 -283t83 -227t139.5 -150.5t199 -54.5q76 0 141 30 t115 77l159 354h33v-385q-63 -25 -119.5 -44t-115 -33.5t-124 -25t-145.5 -18.5q-152 0 -289 45t-240 134t-164.5 224.5t-61.5 313.5z" />
<glyph unicode="D" horiz-adv-x="1490" d="M49 0v33l137 16v1335l-137 17v33h676q168 0 298 -47.5t218 -136.5t133 -215t45 -285q0 -158 -42 -290t-128 -230.5t-218 -158t-312 -71.5h-670zM506 49l166 -16q94 0 170 51t129 145.5t81.5 224.5t28.5 287q0 141 -23.5 262t-74.5 209t-131 138.5t-193 50.5l-153 -17 v-1335z" />
<glyph unicode="E" horiz-adv-x="1234" d="M49 0v33l129 16v1335l-129 17v33h1122v-390h-32l-156 351h-487v-625h256l98 256h35v-547h-35l-98 254h-256v-694h495l146 364h34v-403h-1122z" />
<glyph unicode="F" horiz-adv-x="1189" d="M49 0v33l129 16v1335l-129 17v33h1116v-404h-32l-168 365h-469v-656h256l98 271h35v-578h-35l-98 270h-256v-653l157 -16v-33h-604z" />
<glyph unicode="G" horiz-adv-x="1488" d="M70 682q0 352 208.5 552t587.5 234q156 0 264.5 -29.5t198.5 -74.5v-383h-35l-164 334q-45 51 -106 83t-156 32q-98 0 -178 -50.5t-137 -142.5t-89 -222t-32 -290q0 -147 23.5 -278.5t71.5 -228.5t122 -153.5t174 -56.5q70 0 119 24.5t80 59.5v512l-145 17v41h573v-41 l-111 -17v-516q-57 -25 -116.5 -44t-127 -35.5t-146.5 -27t-171 -16.5q-141 0 -270 48t-226.5 140.5t-154.5 225.5t-57 303z" />
<glyph unicode="H" horiz-adv-x="1507" d="M49 0v33l129 16v1335l-129 17v33h569v-33l-122 -17v-618h514v618l-121 17v33h567v-33l-127 -17v-1335l127 -16v-33h-567v33l121 16v674h-514v-674l122 -16v-33h-569z" />
<glyph unicode="I" horiz-adv-x="673" d="M49 0v33l129 16v1335l-129 17v33h576v-33l-129 -17v-1335l129 -16v-33h-576z" />
<glyph unicode="J" horiz-adv-x="727" d="M6 -115h221l6 52q4 37 6.5 92t2.5 159v1196l-179 17v33h625v-33l-129 -17v-1067q0 -84 -21.5 -156.5t-55 -133t-75.5 -111.5t-83 -92l-172 -182h-146v243z" />
<glyph unicode="K" horiz-adv-x="1484" d="M49 0v33l129 16v1335l-129 17v33h569v-33l-122 -17v-636l657 636l-184 17v33h428v-33l-187 -17l-645 -622l232 80l573 -793l94 -16v-33h-444l-524 713v-664l122 -16v-33h-569z" />
<glyph unicode="L" horiz-adv-x="1173" d="M49 0v33l129 16v1335l-129 17v33h576v-33l-129 -17v-1335h444l180 365h33v-414h-1104z" />
<glyph unicode="M" horiz-adv-x="1865" d="M49 0v33l129 16v1335l-129 17v33h477l435 -1102l407 1102h449v-33l-134 -17v-1335l134 -16v-33h-570v33l117 16v1241l-479 -1300h-156l-508 1347v-1288l137 -16v-33h-309z" />
<glyph unicode="N" horiz-adv-x="1390" d="M49 0v33l129 16v1335l-129 17v33h500l649 -990v940l-143 17v33h315v-33l-127 -17v-1394h-153l-869 1341v-1282l146 -16v-33h-318z" />
<glyph unicode="O" horiz-adv-x="1579" d="M70 690q0 326 180 514.5t561 263.5q158 0 287 -53t220 -148.5t141 -229.5t50 -294q0 -326 -180 -514t-563 -264q-158 0 -286 53.5t-219 148.5t-141 229t-50 294zM432 764q0 -164 30 -300t82 -234.5t125.5 -154t159.5 -55.5q80 0 139.5 53.5t98.5 142.5t58.5 207t19.5 247 q0 162 -30 299t-82 235.5t-124.5 153.5t-158.5 55q-80 0 -140.5 -53t-99.5 -142.5t-58.5 -207t-19.5 -246.5z" />
<glyph unicode="P" horiz-adv-x="1212" d="M49 0v33l129 16v1335l-129 17v33h701q88 0 166.5 -21.5t139 -67t96.5 -114t36 -162.5q0 -102 -42 -172t-115 -119t-169 -80.5t-207 -56.5h-159v-592l133 -16v-33h-580zM496 680h106q55 0 101.5 26.5t79 75.5t51 118t18.5 151q0 74 -13.5 137t-41 110.5t-70.5 75 t-100 27.5l-131 -17v-704z" />
<glyph unicode="Q" horiz-adv-x="1579" d="M70 690q0 326 180 514.5t561 263.5q158 0 287 -53t220 -148.5t141 -229.5t50 -294q0 -319 -174 -506.5t-538 -263.5l325 -28l273 -226l86 -24l-6 -39h-345l-364 309q-158 0 -286 53.5t-219 148.5t-141 229t-50 294zM432 764q0 -164 30 -300t82 -234.5t125.5 -154 t159.5 -55.5q80 0 139.5 53.5t98.5 142.5t58.5 207t19.5 247q0 162 -30 299t-82 235.5t-124.5 153.5t-158.5 55q-80 0 -140.5 -53t-99.5 -142.5t-58.5 -207t-19.5 -246.5z" />
<glyph unicode="R" horiz-adv-x="1366" d="M49 0v33l129 16v1335l-129 17v33h717q82 0 157.5 -19.5t134 -62.5t93.5 -109.5t35 -161.5q0 -182 -153.5 -279t-418.5 -120l349 -70l309 -563l84 -16v-33h-412l-350 678h-98v-629l118 -16v-33h-565zM496 717h75q133 0 203 94t70 252q0 154 -64.5 245t-161.5 93l-122 -17 v-667z" />
<glyph unicode="S" horiz-adv-x="1110" d="M78 90v381h33l110 -264q61 -72 138 -126t178 -54q113 0 181 62.5t68 166.5q0 84 -45 148.5t-153 132.5l-273 180q-51 35 -93 68.5t-72.5 73.5t-48 89t-17.5 113q0 72 25.5 135.5t85 115.5t154.5 92t231 64q63 0 113 -4t96.5 -12t93.5 -22.5t102 -34.5v-373h-35l-131 297 q-47 49 -104.5 76.5t-128.5 27.5q-102 0 -168 -55t-66 -156q0 -84 50.5 -140t136.5 -109l266 -177q123 -78 179 -160.5t56 -205.5q0 -78 -28.5 -146.5t-91 -126t-164 -103.5t-248.5 -79q-127 0 -226.5 30t-203.5 95z" />
<glyph unicode="T" horiz-adv-x="1189" d="M20 1012v422h1149v-422h-34l-177 383h-204v-1346l174 -16v-33h-668v33l176 16v1346h-205l-178 -383h-33z" />
<glyph unicode="U" horiz-adv-x="1353" d="M20 1401v33h574v-33l-127 -17v-911q0 -86 23.5 -159.5t68.5 -127t109.5 -84t146.5 -30.5q74 0 134.5 30.5t104.5 84t67.5 127t23.5 159.5v911l-133 17v33h321v-33l-129 -17v-907q0 -90 -19.5 -171t-72.5 -147.5t-147.5 -115.5t-241.5 -78q-147 0 -255 38t-179.5 106.5 t-106.5 166t-35 216.5v892z" />
<glyph unicode="V" horiz-adv-x="1439" d="M10 1401v33h615v-33l-148 -17l381 -1140l381 1140l-156 17v33h347v-33l-136 -17l-450 -1355l-221 -60l-496 1415z" />
<glyph unicode="W" horiz-adv-x="2125" d="M20 1401v33h603v-33l-148 -17l338 -1099l207 743l-115 356l-104 17v33h602v-33l-148 -17l338 -1099l334 1099l-160 17v33h338v-33l-123 -17l-417 -1361l-201 -46l-317 971l-261 -925l-200 -46l-461 1407z" />
<glyph unicode="X" horiz-adv-x="1490" d="M20 0v33l197 16l408 574l-473 761l-107 19v31h598v-33l-117 -17l324 -522l358 522l-190 17v33h422v-33l-178 -17l-385 -563l479 -772l104 -16v-33h-600v33l121 16l-334 535l-375 -535l187 -16v-33h-439z" />
<glyph unicode="Y" horiz-adv-x="1433" d="M10 1401v33h660v-33l-160 -17l369 -741l368 741l-174 17v33h350v-33l-131 -17l-397 -806v-529l197 -16v-33h-713v33l196 16v508l-436 827z" />
<glyph unicode="Z" horiz-adv-x="1206" d="M29 0v23l766 1372h-484l-190 -381h-33v420h1081v-23l-763 -1372h481l209 389h28v-428h-1095z" />
<glyph unicode="[" horiz-adv-x="655" d="M174 -471v1935h410v-32l-230 -17v-1837l230 -16v-33h-410z" />
<glyph unicode="\" horiz-adv-x="862" d="M-63 1470h61l928 -1941h-66z" />
<glyph unicode="]" horiz-adv-x="630" d="M72 -438l229 16v1837l-229 17v32h385v-1935h-385v33z" />
<glyph unicode="^" horiz-adv-x="765" d="M102 942l265 502h34l263 -502h-56l-225 440l-225 -440h-56z" />
<glyph unicode="_" horiz-adv-x="1157" d="M10 -141h1137v-60h-1137v60z" />
<glyph unicode="`" horiz-adv-x="1024" d="M311 1499h238l104 -360h-45z" />
<glyph unicode="a" horiz-adv-x="1054" d="M55 223q0 59 23.5 118.5t89.5 107.5l453 135v184q0 39 -3.5 70.5t-15.5 53t-37.5 33t-70.5 11.5q-25 0 -42.5 -3t-48.5 -13l-41 -271h-268v185l428 167q74 0 125 -4t89 -13t64.5 -23.5t49.5 -34.5q70 -63 70 -228v-442q0 -45 7 -90t19 -88l94 10l4 -33l-366 -73l-49 168 l-281 -181q-61 0 -114.5 15.5t-93.5 47t-62.5 80t-22.5 111.5zM362 293q0 -80 32 -127t83 -47q31 0 61.5 14t49.5 29l33 22v367l-179 -68q-39 -33 -59.5 -79t-20.5 -111z" />
<glyph unicode="b" horiz-adv-x="1136" d="M20 1399l365 59h33v-663l299 206q74 0 138.5 -28.5t112.5 -83.5t75.5 -136.5t27.5 -185.5q0 -496 -532 -598q-125 0 -223.5 19.5t-184.5 54.5v1327l-104 -14zM418 72q23 -33 53.5 -46.5t73.5 -13.5q92 0 152.5 115t60.5 324q0 207 -45 293.5t-129 86.5q-35 0 -65 -15 t-64 -36l-37 -22v-686z" />
<glyph unicode="c" horiz-adv-x="944" d="M59 440q0 123 43 219.5t115 166t165 113.5t196 62q72 0 154.5 -31.5t144.5 -78.5v-225h-232l-72 274q-23 10 -49 10q-37 0 -73.5 -17.5t-67.5 -57t-49.5 -103t-18.5 -156.5q0 -94 25 -174t71 -137t108.5 -90t139.5 -33q68 0 117 16.5t107 53.5l10 -21q-47 -45 -88 -81.5 t-83 -67.5t-87 -58.5t-98 -54.5q-102 0 -189.5 33t-152 94.5t-100.5 148.5t-36 195z" />
<glyph unicode="d" horiz-adv-x="1171" d="M59 436q0 102 25 194.5t78 166t138 127t206 77.5q119 0 207 -55v430l-107 -14l-4 37l365 59h30v-1200q0 -59 6.5 -95t22.5 -81l104 6l7 -33l-361 -73l-57 198l-264 -211q-84 0 -156 35t-125 97.5t-84 148.5t-31 186zM375 541q0 -86 12 -159t37 -125t59.5 -81t79.5 -29 q35 0 57.5 9.5t63.5 38.5l29 20v674q-16 20 -45 35.5t-68 15.5q-117 -2 -171 -110.5t-54 -288.5z" />
<glyph unicode="e" horiz-adv-x="995" d="M59 440q0 119 40 214.5t107.5 166t158 115.5t192.5 65q78 0 145.5 -23.5t117.5 -69.5t79 -114.5t29 -160.5v-78h-611q8 -92 40 -159.5t79 -112.5t107.5 -67.5t128.5 -22.5q70 0 125 18t114 53l19 -24q-49 -49 -93 -87t-90.5 -70t-95.5 -59.5t-106 -54.5q-98 0 -187.5 32 t-155 92.5t-104.5 148.5t-39 198zM315 588h312v88q0 125 -30 194.5t-114 69.5q-88 0 -128 -83t-40 -239v-30z" />
<glyph unicode="f" horiz-adv-x="718" d="M51 0v33l121 16v864h-121v33h121v19q0 92 35 157.5t100 120.5l242 211h221v-199h-289l-8 -28q-10 -35 -12 -80t-2 -137v-64h250v-33h-250v-864l182 -16v-33h-590z" />
<glyph unicode="g" horiz-adv-x="1095" d="M35 -227l237 172q-102 23 -148 79t-46 128v45l213 165q-96 39 -152.5 114t-56.5 173q2 139 114.5 221t319.5 131q139 0 237.5 -58t133.5 -155l94 213h104v-245h-182l-6 -11q10 -27 10 -55q-2 -145 -110.5 -226t-321.5 -134q-41 0 -79 5t-72 15l-68 -67q0 -47 27.5 -67.5 t74.5 -20.5h447q111 0 164 -62.5t53 -148.5q0 -88 -40 -158t-111.5 -128t-170 -105.5t-215.5 -90.5q-106 0 -189 10.5t-141.5 37t-89 71.5t-30.5 113v39zM250 -186q0 -72 65.5 -113t157.5 -41h197q53 0 97 15.5t74.5 40t48 55t17.5 65.5q0 47 -29.5 77t-95.5 30h-477 q-35 -31 -45 -65t-10 -64zM362 686q0 -147 31 -230t115 -83q63 0 91 68.5t28 203.5q0 147 -31 231.5t-115 84.5q-63 0 -91 -69t-28 -206z" />
<glyph unicode="h" horiz-adv-x="1218" d="M61 1399l365 59h33v-682l362 225q78 0 120 -16t69 -43q16 -16 27.5 -35.5t17.5 -46t9 -64.5t3 -94v-653l119 -16v-33h-494v33l76 16v664q0 66 -23.5 94.5t-70.5 28.5q-45 0 -79 -16.5t-79 -43.5l-57 -35v-692l78 -16v-33h-471v33l106 16v1327l-104 -14z" />
<glyph unicode="i" horiz-adv-x="612" d="M61 913l367 78h35v-942l108 -16v-33h-503v33l108 16v848l-110 -18zM184 1317l23 113l182 14l70 -14l10 -132l-23 -122l-184 -15l-63 15z" />
<glyph unicode="j" horiz-adv-x="583" d="M-41 -238h205l4 41q4 29 8 86.5t4 149.5v858l-110 -18l-4 34l366 78h35v-874q0 -68 -6 -118t-24.5 -92t-50.5 -81t-81 -86l-219 -227h-127v249zM186 1317l25 113l180 14l70 -14l12 -132l-24 -122l-183 -15l-63 15z" />
<glyph unicode="k" horiz-adv-x="1204" d="M61 1399l365 59h33v-907l469 371l-142 16v33h357v-33l-139 -16l-476 -361l211 45l385 -557l70 -16v-33h-397l-338 530v-481l108 -16v-33h-501v33l106 16v1327l-104 -14z" />
<glyph unicode="l" horiz-adv-x="598" d="M61 1399l365 59h33v-1409l108 -16v-33h-501v33l106 16v1327l-104 -14z" />
<glyph unicode="m" horiz-adv-x="1798" d="M61 913l367 78h35v-215l352 225q78 0 117 -16t65 -43q29 -29 42.5 -61.5t15.5 -104.5l352 225q78 0 118 -16t64 -43q16 -16 27.5 -34.5t18.5 -44t10.5 -62.5t3.5 -92v-660l118 -16v-33h-495v33l78 16v660q0 70 -25 98.5t-74 28.5q-37 0 -76.5 -20.5t-74.5 -43.5l-45 -31 v-692l78 -16v-33h-453v33l76 16v660q0 70 -22.5 98.5t-74.5 28.5q-39 0 -78.5 -21.5t-72.5 -42.5l-45 -31v-692l78 -16v-33h-473v33l108 16v852l-110 -20z" />
<glyph unicode="n" horiz-adv-x="1220" d="M61 913l367 78h35v-213l360 223q80 0 121 -16t68 -43q18 -18 29.5 -37.5t17.5 -46.5t8 -63.5t2 -92.5v-653l119 -16v-33h-494v33l78 16v664q0 66 -23.5 94.5t-70.5 28.5t-81 -16.5t-79 -43.5l-55 -35v-692l78 -16v-33h-473v33l108 16v848l-110 -18z" />
<glyph unicode="o" horiz-adv-x="1114" d="M59 461q0 127 42 217t115 152.5t170 103.5t208 67q98 0 182 -35.5t145.5 -100t96.5 -154.5t35 -199q0 -127 -42 -218t-115 -154.5t-170 -103.5t-210 -67q-98 0 -181 36t-144.5 100.5t-96.5 154.5t-35 201zM365 545q0 -256 62 -388t153 -132q80 0 124 96t44 301 q0 264 -64 393t-152 129q-80 0 -123.5 -95t-43.5 -304z" />
<glyph unicode="p" horiz-adv-x="1144" d="M31 913l350 78h35l12 -194l283 204q80 0 148.5 -32.5t117.5 -93t77.5 -144.5t28.5 -186t-21.5 -193.5t-73.5 -165t-137 -129t-212 -88.5q-59 0 -111.5 13.5t-95.5 46.5v-451l164 -16v-33h-561v33l110 16v1323l-110 -20zM432 90q16 -27 48 -43q28 -14 62 -14h9 q106 0 162.5 107.5t56.5 291.5q0 84 -11 155.5t-35 124t-59.5 82t-82.5 29.5q-39 0 -63.5 -13t-61.5 -36l-25 -14v-670z" />
<glyph unicode="q" horiz-adv-x="1128" d="M59 408q0 111 34 209t99.5 176.5t165 132t228.5 75.5q104 0 181 -15t138 -48l62 59h32v-1419l119 -16v-33h-567v33l162 16v598l-285 -207q-76 0 -142.5 30t-116.5 86t-80 137t-30 186zM375 528q0 -78 9 -146.5t30.5 -120.5t56.5 -83t86 -31q41 0 65.5 10.5t59.5 32.5 l31 21v678q-20 33 -49 50t-72 17q-98 0 -157.5 -106.5t-59.5 -321.5z" />
<glyph unicode="r" horiz-adv-x="827" d="M61 913l351 78h32l17 -342l174 342h162v-289h-267l-67 -100v-551l170 -18v-33h-565v33l108 16v852l-110 -20z" />
<glyph unicode="s" horiz-adv-x="837" d="M59 694q0 106 89.5 186.5t269.5 120.5q113 0 183.5 -17t141.5 -50v-285h-32l-144 246q-41 39 -74.5 51t-80.5 12q-53 0 -89 -30.5t-36 -81.5q0 -53 35.5 -90t111.5 -86l201 -133q85 -53 119 -109q33 -52 32 -125v-8q0 -109 -86 -197t-276 -133q-104 0 -199.5 23.5 t-158.5 54.5v305h34l125 -242q47 -43 89 -67.5t102 -24.5q72 0 110.5 36t38.5 83q0 31 -8 52.5t-26.5 42t-46 41t-66.5 44.5l-199 133q-31 20 -60.5 44t-51 53.5t-35 66.5t-13.5 84z" />
<glyph unicode="t" horiz-adv-x="733" d="M10 913v33h135v139l287 156v-295h260v-33h-260v-659q0 -63 32 -93t81 -30q47 0 82 10.5t80 32.5l14 -29l-342 -176q-125 0 -179.5 72t-54.5 195v677h-135z" />
<glyph unicode="u" horiz-adv-x="1173" d="M27 887v33l370 67h35v-721q0 -131 100 -131q37 0 68 14.5t70 36.5l55 33v678l-104 -10l-3 33l363 67h31v-713q0 -59 6 -101t18 -89l88 6l4 -33l-358 -71l-39 198l-344 -215q-72 0 -119 17.5t-73 42.5q-35 35 -48.5 85t-13.5 158v625z" />
<glyph unicode="v" horiz-adv-x="1093" d="M10 938v33h512v-33l-106 -16l268 -762l254 762l-121 16v33h266v-33l-92 -16l-297 -883l-250 -82l-352 965z" />
<glyph unicode="w" horiz-adv-x="1728" d="M10 938v33h496v-33l-105 -16l248 -783l185 604l-58 179l-82 16v33h496v-33l-105 -16l248 -783l240 783l-119 16v33h264v-33l-90 -16l-268 -885l-273 -74l-225 692l-186 -618l-273 -74l-313 959z" />
<glyph unicode="x" horiz-adv-x="1161" d="M33 0v33l125 16l303 373l-336 500l-86 16v33h520v-33l-78 -16l209 -318l244 318l-131 16v33h309v-33l-127 -16l-268 -355l344 -518l88 -16v-33h-526v33l84 16l-222 334l-270 -334l147 -16v-33h-329z" />
<glyph unicode="y" horiz-adv-x="1120" d="M10 938v33h512v-33l-106 -16l272 -770l270 770l-118 16v33h270v-33l-96 -16l-291 -828l-272 -575h-287v256h291l221 344l-258 -99l-326 902z" />
<glyph unicode="z" horiz-adv-x="1007" d="M59 0v27l564 915h-291l-180 -330h-35v359h839v-27l-548 -915h319l174 350h35v-379h-877z" />
<glyph unicode="{" horiz-adv-x="720" d="M102 524q49 25 77 52.5t41 59.5t15.5 69.5t2.5 80.5v392q0 66 23.5 119t64.5 89.5t95 57t114 20.5h98v-32h-80q-55 0 -95 -48.5t-40 -173.5v-399q0 -80 -28 -149.5t-126 -112.5l154 -117v-649q0 -63 11 -105.5t30.5 -68t46 -36.5t55.5 -11h78v-33h-111q-61 0 -114.5 20.5 t-92 57.5t-61 90t-22.5 119v585z" />
<glyph unicode="|" horiz-adv-x="509" d="M225 -502v1972h60v-1972h-60z" />
<glyph unicode="}" horiz-adv-x="710" d="M72 1432v32h110q61 0 114.5 -20.5t92.5 -57t61.5 -90t22.5 -118.5v-506l135 -125q-49 -23 -76.5 -50.5t-41 -60.5t-15.5 -70.5t-2 -80.5v-469q0 -66 -23.5 -119t-64.5 -90t-95 -57.5t-114 -20.5h-98v33h80q27 0 51 11t42.5 36.5t30 67.5t11.5 106v479q0 39 5 77 t22.5 71.5t47 62.5t78.5 49l-153 119v569q0 63 -11.5 105.5t-31 68t-46 37t-54.5 11.5h-78z" />
<glyph unicode="~" horiz-adv-x="1370" d="M102 418l78 164l197 53l756 -143l100 153h35l-78 -160l-197 -57l-755 145l-103 -155h-33z" />
<glyph unicode="&#xa1;" horiz-adv-x="602" d="M143 -481l21 633l110 380h54l110 -378l23 -635h-318zM168 860l27 113l167 14l62 -14l12 -133l-22 -109l-170 -14l-62 14z" />
<glyph unicode="&#xa2;" horiz-adv-x="966" d="M82 440q0 113 36 203t96 157.5t141 114t171 70.5v133h39v-125q2 0 16.5 4t18.5 4q72 0 155 -31.5t144 -78.5v-225h-231l-72 274q-23 10 -51 10q-37 0 -74 -17.5t-66.5 -57t-48 -103t-18.5 -156.5q0 -94 24.5 -174t70.5 -137t108.5 -90t140.5 -33q66 0 115 16.5t108 53.5 l10 -21q-90 -90 -167.5 -148t-182.5 -110v-137h-39v135q-96 4 -177 39t-140 95.5t-93 145.5t-34 189z" />
<glyph unicode="&#xa3;" horiz-adv-x="1120" d="M82 0v33l127 20v680h-127v35h127v238q0 104 42 180t112.5 131t161.5 90t188 57q104 0 179 -19.5t124 -53.5v-344h-35l-102 276q-35 41 -74 64.5t-98 23.5q-109 0 -160 -65.5t-51 -186.5v-391h305v-35h-305v-397q0 -63 -4.5 -108.5t-13.5 -78t-24.5 -57t-37.5 -49.5h440 l150 319h32v-362h-956z" />
<glyph unicode="&#xa4;" d="M178 317l139 140q-41 53 -64.5 119.5t-23.5 140.5q0 78 27 146.5t74 121.5l-152 152l45 43l150 -150q53 45 120.5 70.5t145.5 25.5q150 0 260 -94l148 148l43 -43l-148 -146q51 -53 79 -124.5t28 -149.5q0 -74 -26 -142.5t-71 -121.5l138 -136l-43 -45l-136 136 q-113 -100 -272 -101q-80 0 -151.5 27.5t-125.5 77.5l-139 -140zM293 717q0 -72 27.5 -136.5t74.5 -112.5t109.5 -77t134.5 -29q76 0 141.5 32t114.5 85q0 2 1 4t1 4q41 47 64.5 105.5t23.5 124.5q0 72 -27.5 136.5t-74.5 112.5t-109.5 76.5t-134.5 28.5t-134.5 -28.5 t-109.5 -76.5t-74.5 -112.5t-27.5 -136.5z" />
<glyph unicode="&#xa5;" horiz-adv-x="1433" d="M41 1401v33h657v-33l-153 -17l334 -739l340 739l-175 17v33h349v-33l-129 -17l-375 -809v-26h233v-35h-233v-170h233v-35h-233v-260l196 -16v-33h-712v33l196 16v260h-215v35h215v170h-215v35h215v8l-399 827z" />
<glyph unicode="&#xa6;" horiz-adv-x="509" d="M225 379h60v-881h-60v881zM225 590v880h60v-880h-60z" />
<glyph unicode="&#xa7;" horiz-adv-x="1163" d="M82 469q0 102 67.5 190.5t208.5 135.5q-88 66 -125.5 139.5t-37.5 152.5q0 141 108.5 239.5t304.5 141.5q123 0 207 -25.5t143 -68.5v-289h-32l-103 240q-41 51 -89 74.5t-113 23.5q-96 0 -151.5 -45t-55.5 -137q0 -80 53 -148.5t184 -156.5l430 -281v-82 q0 -84 -24.5 -148.5t-66.5 -114.5t-99 -88t-123 -66l182 -129v-93q0 -96 -34.5 -167.5t-94 -123t-139.5 -86t-172 -59.5q-98 0 -189.5 31t-144.5 68v301h35l78 -220q18 -20 39.5 -43.5t50.5 -43t65.5 -33t87.5 -13.5q37 0 72 15.5t62.5 45t45 74t19.5 101.5v35l-371 258 q-141 102 -209.5 196.5t-68.5 198.5zM295 616q0 -49 22.5 -92t59.5 -80.5t85 -72.5t97 -70l180 -127q55 35 91 89t36 138v31l-260 182q-14 10 -47 33t-68.5 48.5t-66.5 48t-39 30.5q-41 -23 -65.5 -58.5t-24.5 -99.5z" />
<glyph unicode="&#xa8;" horiz-adv-x="1024" d="M205 1331l20 94l144 11l57 -11l14 -112l-24 -99l-140 -12l-59 12zM580 1331l20 94l143 11l58 -11l14 -112l-24 -99l-142 -12l-57 12z" />
<glyph unicode="&#xa9;" horiz-adv-x="1738" d="M102 729q0 162 55.5 288t156 217t241.5 148.5t313 81.5q154 -2 293 -53t244.5 -148.5t168 -237.5t62.5 -320q0 -162 -55 -288t-154.5 -217t-241 -148.5t-313.5 -82.5q-154 2 -294 53.5t-245.5 148.5t-168 237.5t-62.5 320.5zM242 729q0 -184 61.5 -319.5t155.5 -222.5 t203.5 -130t205.5 -43q125 0 239 46t201 135.5t138 217.5t51 292q0 123 -28.5 224t-77 180t-111.5 137.5t-133 97t-140.5 57t-134.5 18.5q-125 0 -239.5 -46t-201.5 -135t-138 -217t-51 -292zM428 696q0 203 131 314.5t363 134.5q100 0 166.5 -17.5t128.5 -52.5v-227h-23 l-113 203q-29 33 -64.5 51t-88.5 18q-109 0 -179.5 -98t-70.5 -301q0 -88 15.5 -162t47 -128t78.5 -84t113 -30q47 0 84 17.5t65 44.5l115 217h25v-229q-41 -16 -77 -28.5t-73 -22t-77 -16.5t-91 -11q-96 0 -182 25.5t-151.5 75.5t-103.5 127t-38 179z" />
<glyph unicode="&#xaa;" horiz-adv-x="944" d="M82 842q0 45 18.5 92t71.5 86l363 108v148q0 63 -15.5 99t-87.5 36q-20 0 -34.5 -2t-39.5 -10l-32 -217h-211v147l340 135q115 0 170 -13t90 -46q55 -49 55 -184v-357q0 -35 7 -70.5t18 -70.5l75 8l2 -26l-290 -60l-41 137l-226 -145q-96 0 -164.5 51t-68.5 154zM326 897 q0 -66 25.5 -103.5t66.5 -37.5q27 0 49 12t39 23l29 18v295l-146 -55q-63 -53 -63 -152z" />
<glyph unicode="&#xab;" horiz-adv-x="880" d="M31 481l375 451h45l-265 -453l265 -448h-50zM399 481l375 451h45l-264 -453l264 -448h-49z" />
<glyph unicode="&#xac;" d="M106 664v57h1055v-352h-59v295h-996z" />
<glyph unicode="&#xad;" horiz-adv-x="747" d="M61 524v92h625v-92h-625z" />
<glyph unicode="&#xae;" horiz-adv-x="1212" d="M92 899q0 111 37 197t104.5 148.5t161.5 102t209 56.5q104 0 197.5 -36t164 -101.5t112.5 -162.5t42 -220q0 -111 -36.5 -197t-104.5 -148.5t-162 -102.5t-209 -56q-104 0 -197.5 36t-164 102.5t-112.5 162.5t-42 219zM178 899q0 -129 42 -222t106.5 -152.5t138 -87 t139.5 -27.5q86 0 164 30.5t137.5 90t94 147.5t34.5 205q0 131 -42 223t-106.5 151.5t-139 87t-138.5 27.5q-86 0 -163.5 -30.5t-137 -90t-94.5 -147.5t-35 -205zM348 616v17l49 4v512l-49 6v14h309q70 0 124.5 -31.5t54.5 -103.5q0 -70 -63.5 -107.5t-176.5 -45.5l154 -31 l120 -213l33 -4v-17h-184l-133 263h-47v-242l47 -4v-17h-238zM539 895h26q55 0 85 37t30 96q0 55 -27.5 91t-68.5 36l-45 -6v-254z" />
<glyph unicode="&#xaf;" horiz-adv-x="1024" d="M213 1255v111h598v-111h-598z" />
<glyph unicode="&#xb0;" horiz-adv-x="890" d="M123 1221q0 131 85 202.5t238 118.5q66 0 124.5 -25.5t102.5 -69.5t69.5 -102.5t25.5 -123.5q0 -133 -75 -209t-247 -115q-66 0 -125 25.5t-103 69.5t-69.5 103.5t-25.5 125.5zM229 1221q0 -43 17.5 -83t47.5 -70t69.5 -47t82.5 -17q47 0 86 17t68 47t45.5 70t16.5 83 t-17.5 82.5t-46.5 68.5t-69 46.5t-83 17.5q-47 0 -87 -17.5t-68.5 -46.5t-45 -68.5t-16.5 -82.5z" />
<glyph unicode="&#xb1;" d="M96 0v59h1075v-59h-1075zM102 766v57h498v506h59v-506h498v-57h-498v-492h-59v492h-498z" />
<glyph unicode="&#xb2;" horiz-adv-x="735" d="M20 836l173 180q242 242 241 416q0 66 -29.5 107.5t-76.5 41.5q-12 0 -30.5 -2t-29.5 -6l-47 -203h-180v143l330 115q76 0 130 -16.5t88 -43t49 -62.5t15 -74q0 -111 -86 -202t-258 -190l-139 -75h504v-21l-49 -125h-588z" />
<glyph unicode="&#xb3;" horiz-adv-x="692" d="M41 1401v123l340 104q61 0 103 -12t68 -31.5t37 -43t11 -46.5t-10 -47.5t-39 -48t-78 -44t-125 -34.5q76 0 127 -18.5t84 -44t47.5 -57.5t14.5 -58q0 -80 -58.5 -127t-175.5 -98l-256 -107h-86v147h320q27 29 38 54.5t11 66.5q0 61 -54.5 104.5t-152.5 41.5l-8 18l82 53 q70 39 91 76t21 90t-27.5 83t-68.5 30q-10 0 -23.5 -2t-17.5 -4l-51 -168h-164z" />
<glyph unicode="&#xb4;" horiz-adv-x="1024" d="M311 1139l105 360h239l-297 -360h-47z" />
<glyph unicode="&#xb5;" d="M141 -471v1442h299v-705q0 -68 27 -96.5t74 -28.5q37 0 63.5 12.5t61.5 32.5l63 37v748h287v-922l112 -16v-33h-301l-36 66l-60 120l-348 -217q-57 0 -105.5 14.5t-78.5 43.5q-14 12 -19 28v-116l211 -410h-250z" />
<glyph unicode="&#xb6;" horiz-adv-x="1048" d="M61 1098q0 66 30 119t78 95t109.5 72.5t127.5 49.5h561v-33l-99 -17v-1712h-59v1723h-289v-1723h-59v1108q-72 0 -142.5 19.5t-128 59.5t-93.5 99.5t-36 139.5z" />
<glyph unicode="&#xb7;" horiz-adv-x="489" d="M113 836l14 108l170 14l65 -14l15 -125l-17 -114l-172 -11l-63 11z" />
<glyph unicode="&#xb8;" horiz-adv-x="1024" d="M295 -504l65 103h172q47 43 48 108q0 61 -35 83t-82 28l135 209l29 -9l-68 -106q86 -10 129 -55t43 -103q0 -41 -20.5 -70.5t-52 -51t-70.5 -39t-76 -31.5l-160 -66h-57z" />
<glyph unicode="&#xb9;" horiz-adv-x="550" d="M41 1503l330 117h22v-770l148 -8v-23h-486v23l146 8v680l-152 -47z" />
<glyph unicode="&#xba;" horiz-adv-x="931" d="M72 1036q0 100 32.5 172t90 122t135.5 82t166 52q78 0 144.5 -27.5t115.5 -78.5t76.5 -123t27.5 -160q0 -100 -32.5 -172t-91 -122t-136.5 -83t-166 -53q-78 0 -144.5 28.5t-114.5 80t-75.5 123t-27.5 159.5zM311 1102q0 -203 50.5 -307.5t121.5 -104.5q66 0 100.5 77 t34.5 239q0 211 -51 312t-121 101q-66 0 -100.5 -75.5t-34.5 -241.5z" />
<glyph unicode="&#xbb;" horiz-adv-x="880" d="M61 31l265 448l-265 453h45l375 -451l-370 -450h-50zM430 31l264 448l-264 453h45l375 -451l-371 -450h-49z" />
<glyph unicode="&#xbc;" horiz-adv-x="1675" d="M61 1329l330 117h23v-770l147 -8v-23h-485v23l145 8v680l-151 -47zM362 -102l793 1556h66l-789 -1556h-70zM922 264l368 524h244v-20l-584 -500h314v148l192 104v-252h158v-24h-158v-244h-192v244h-328z" />
<glyph unicode="&#xbd;" horiz-adv-x="1683" d="M61 1329l330 117h23v-770l147 -8v-23h-485v23l145 8v680l-151 -47zM362 -102l793 1556h66l-789 -1556h-70zM969 16l172 181q242 242 241 415q0 66 -29.5 108t-76.5 42q-12 0 -30.5 -2t-28.5 -6l-48 -203h-180v143l330 115q76 0 130 -16.5t88 -43t49.5 -62.5t15.5 -75 q0 -111 -86 -202t-259 -189l-139 -76h504v-20l-49 -125h-588z" />
<glyph unicode="&#xbe;" horiz-adv-x="1720" d="M61 1227v123l340 104q61 0 103.5 -12t68 -31.5t37 -43.5t11.5 -46q0 -23 -10.5 -47.5t-39 -48t-78 -44t-124.5 -34.5q76 0 127 -18.5t82.5 -44t46 -57.5t14.5 -58q0 -80 -57.5 -127t-173.5 -99l-256 -106h-86v147h319q27 29 38 54.5t11 66.5q0 61 -54 104.5t-153 41.5 l-8 18l82 53q70 39 91.5 76t21.5 90t-28 83t-69 30q-10 0 -23 -2t-18 -4l-53 -168h-162zM408 -102l792 1556h66l-789 -1556h-69zM967 264l368 524h244v-20l-584 -500h316v148l190 104v-252h158v-24h-158v-244h-190v244h-330z" />
<glyph unicode="&#xbf;" horiz-adv-x="862" d="M41 -158q0 150 91 238t257 147l64 33l32 260h62l20 -233l-67 -56q-96 -78 -138.5 -175t-42.5 -246q0 -111 46.5 -185t146.5 -88l152 309h75v-313l-254 -27q-117 8 -200.5 38t-138 75t-80 102.5t-25.5 120.5zM383 850l27 111l168 14l61 -14l12 -132l-22 -110l-170 -12 l-62 12z" />
<glyph unicode="&#xc0;" horiz-adv-x="1439" d="M10 0v33l119 16l465 1321l244 96l475 -1417l117 -16v-33h-627v33l158 16l-144 453h-477l-156 -453l162 -16v-33h-336zM354 545h449l-215 680zM430 1853h250l92 -278h-45z" />
<glyph unicode="&#xc1;" horiz-adv-x="1439" d="M10 0v33l119 16l465 1321l244 96l475 -1417l117 -16v-33h-627v33l158 16l-144 453h-477l-156 -453l162 -16v-33h-336zM354 545h449l-215 680zM668 1575l94 278h250l-297 -278h-47z" />
<glyph unicode="&#xc2;" horiz-adv-x="1439" d="M10 0v33l119 16l465 1321l244 96l475 -1417l117 -16v-33h-627v33l158 16l-144 453h-477l-156 -453l162 -16v-33h-336zM354 545h449l-215 680zM406 1575l266 287h96l266 -287h-45l-262 156h-14l-262 -156h-45z" />
<glyph unicode="&#xc3;" horiz-adv-x="1439" d="M10 0v33l119 16l465 1321l244 96l475 -1417l117 -16v-33h-627v33l158 16l-144 453h-477l-156 -453l162 -16v-33h-336zM354 545h449l-215 680zM385 1552l68 260l94 31l436 -145l82 147h27l-66 -260l-96 -29l-438 150l-78 -154h-29z" />
<glyph unicode="&#xc4;" horiz-adv-x="1439" d="M10 0v33l119 16l465 1321l244 96l475 -1417l117 -16v-33h-627v33l158 16l-144 453h-477l-156 -453l162 -16v-33h-336zM354 545h449l-215 680zM371 1712l22 94l142 11l57 -11l14 -112l-24 -99l-140 -12l-59 12zM838 1712l22 94l141 11l58 -11l14 -112l-24 -99l-140 -12 l-59 12z" />
<glyph unicode="&#xc5;" horiz-adv-x="1439" d="M10 0v33l119 16l465 1321l244 96l475 -1417l117 -16v-33h-627v33l158 16l-144 453h-477l-156 -453l162 -16v-33h-336zM354 545h449l-215 680zM475 1718q0 49 19.5 83t51.5 58.5t72.5 42t86.5 31.5q47 0 89 -11t73.5 -35.5t50 -65t18.5 -99.5q0 -49 -18.5 -83.5t-49 -59.5 t-72.5 -41t-87 -31q-43 0 -85 11.5t-75 36t-53.5 64.5t-20.5 99zM549 1720q0 -72 44 -114.5t112 -42.5t112.5 43t44.5 114q0 70 -45 114t-112 44q-68 0 -112 -44t-44 -114z" />
<glyph unicode="&#xc6;" horiz-adv-x="2015" d="M10 0v33l119 16l872 1385h955v-390h-33l-156 351h-454v-684h223l100 254h33v-547h-33l-100 254h-223v-633h463l147 364h33v-403h-1090v33l127 16v623h-413l-387 -623l159 -16v-33h-342zM602 711h391v632z" />
<glyph unicode="&#xc7;" horiz-adv-x="1421" d="M70 682q0 178 54 316.5t155.5 236.5t246 156.5t326.5 76.5q80 0 145.5 -7t122 -20.5t107.5 -31.5t102 -43v-385h-35l-159 334q-49 53 -110.5 84t-156.5 31q-92 0 -172 -44.5t-138 -132.5t-92 -220t-34 -308q0 -152 27.5 -283t83 -227t139.5 -150.5t199 -54.5q76 0 141 30 t115 77l159 354h33v-385q-63 -25 -119.5 -44t-115 -33.5t-124 -25t-145.5 -18.5l-32 -53q86 -10 130 -55t42 -103q0 -41 -20.5 -70.5t-51.5 -51t-70 -39t-75 -31.5l-160 -66h-58l66 103h172q45 45 45 108q0 61 -35 83t-82 28l97 147q-145 4 -276.5 51t-231 137.5 t-157.5 222.5t-58 306z" />
<glyph unicode="&#xc8;" horiz-adv-x="1234" d="M49 0v33l129 16v1335l-129 17v33h1122v-390h-32l-156 351h-487v-625h256l98 256h35v-547h-35l-98 254h-256v-694h495l146 364h34v-403h-1122zM410 1853h249l93 -278h-45z" />
<glyph unicode="&#xc9;" horiz-adv-x="1234" d="M49 0v33l129 16v1335l-129 17v33h1122v-390h-32l-156 351h-487v-625h256l98 256h35v-547h-35l-98 254h-256v-694h495l146 364h34v-403h-1122zM604 1575l94 278h248l-297 -278h-45z" />
<glyph unicode="&#xca;" horiz-adv-x="1234" d="M49 0v33l129 16v1335l-129 17v33h1122v-390h-32l-156 351h-487v-625h256l98 256h35v-547h-35l-98 254h-256v-694h495l146 364h34v-403h-1122zM369 1575l266 287h96l266 -287h-45l-262 156h-14l-262 -156h-45z" />
<glyph unicode="&#xcb;" horiz-adv-x="1234" d="M49 0v33l129 16v1335l-129 17v33h1122v-390h-32l-156 351h-487v-625h256l98 256h35v-547h-35l-98 254h-256v-694h495l146 364h34v-403h-1122zM342 1712l20 94l142 11l57 -11l14 -112l-22 -99l-141 -12l-60 12zM809 1712l20 94l142 11l57 -11l14 -112l-22 -99l-141 -12 l-60 12z" />
<glyph unicode="&#xcc;" horiz-adv-x="673" d="M49 0v33l129 16v1335l-129 17v33h576v-33l-129 -17v-1335l129 -16v-33h-576zM90 1853h250l94 -278h-45z" />
<glyph unicode="&#xcd;" horiz-adv-x="673" d="M49 0v33l129 16v1335l-129 17v33h576v-33l-129 -17v-1335l129 -16v-33h-576zM305 1575l94 278h248l-297 -278h-45z" />
<glyph unicode="&#xce;" horiz-adv-x="673" d="M23 1575l266 287h96l266 -287h-45l-262 156h-14l-262 -156h-45zM49 0v33l129 16v1335l-129 17v33h576v-33l-129 -17v-1335l129 -16v-33h-576z" />
<glyph unicode="&#xcf;" horiz-adv-x="673" d="M16 1712l23 94l141 11l58 -11l14 -112l-25 -99l-139 -12l-59 12zM49 0v33l129 16v1335l-129 17v33h576v-33l-129 -17v-1335l129 -16v-33h-576zM430 1712l21 94l143 11l57 -11l15 -112l-25 -99l-139 -12l-60 12z" />
<glyph unicode="&#xd0;" horiz-adv-x="1490" d="M49 0v33l137 16v684h-116v27h116v624l-137 17v33h676q168 0 298 -47.5t218 -136.5t133 -215t45 -285q0 -158 -42 -290t-128 -230.5t-218 -158t-312 -71.5h-670zM506 49l166 -16q94 0 170 51t129 145.5t81.5 224.5t28.5 287q0 141 -23.5 262t-74.5 209t-131 138.5 t-193 50.5l-153 -17v-624h246v-27h-246v-684z" />
<glyph unicode="&#xd1;" horiz-adv-x="1390" d="M49 0v33l129 16v1335l-129 17v33h500l649 -990v940l-143 17v33h315v-33l-127 -17v-1394h-153l-869 1341v-1282l146 -16v-33h-318zM438 1552l68 260l94 31l436 -145l82 147h27l-66 -260l-96 -29l-438 150l-78 -154h-29z" />
<glyph unicode="&#xd2;" horiz-adv-x="1579" d="M70 690q0 326 180 514.5t561 263.5q158 0 287 -53t220 -148.5t141 -229.5t50 -294q0 -326 -180 -514t-563 -264q-158 0 -286 53.5t-219 148.5t-141 229t-50 294zM432 764q0 -164 30 -300t82 -234.5t125.5 -154t159.5 -55.5q80 0 139.5 53.5t98.5 142.5t58.5 207t19.5 247 q0 162 -30 299t-82 235.5t-124.5 153.5t-158.5 55q-80 0 -140.5 -53t-99.5 -142.5t-58.5 -207t-19.5 -246.5zM502 1853h250l92 -278h-45z" />
<glyph unicode="&#xd3;" horiz-adv-x="1579" d="M70 690q0 326 180 514.5t561 263.5q158 0 287 -53t220 -148.5t141 -229.5t50 -294q0 -326 -180 -514t-563 -264q-158 0 -286 53.5t-219 148.5t-141 229t-50 294zM432 764q0 -164 30 -300t82 -234.5t125.5 -154t159.5 -55.5q80 0 139.5 53.5t98.5 142.5t58.5 207t19.5 247 q0 162 -30 299t-82 235.5t-124.5 153.5t-158.5 55q-80 0 -140.5 -53t-99.5 -142.5t-58.5 -207t-19.5 -246.5zM750 1575l94 278h248l-297 -278h-45z" />
<glyph unicode="&#xd4;" horiz-adv-x="1579" d="M70 690q0 326 180 514.5t561 263.5q158 0 287 -53t220 -148.5t141 -229.5t50 -294q0 -326 -180 -514t-563 -264q-158 0 -286 53.5t-219 148.5t-141 229t-50 294zM432 764q0 -164 30 -300t82 -234.5t125.5 -154t159.5 -55.5q80 0 139.5 53.5t98.5 142.5t58.5 207t19.5 247 q0 162 -30 299t-82 235.5t-124.5 153.5t-158.5 55q-80 0 -140.5 -53t-99.5 -142.5t-58.5 -207t-19.5 -246.5zM473 1575l264 287h99l266 -287h-47l-262 156h-13l-262 -156h-45z" />
<glyph unicode="&#xd5;" horiz-adv-x="1579" d="M70 690q0 326 180 514.5t561 263.5q158 0 287 -53t220 -148.5t141 -229.5t50 -294q0 -326 -180 -514t-563 -264q-158 0 -286 53.5t-219 148.5t-141 229t-50 294zM432 764q0 -164 30 -300t82 -234.5t125.5 -154t159.5 -55.5q80 0 139.5 53.5t98.5 142.5t58.5 207t19.5 247 q0 162 -30 299t-82 235.5t-124.5 153.5t-158.5 55q-80 0 -140.5 -53t-99.5 -142.5t-58.5 -207t-19.5 -246.5zM446 1552l68 260l94 31l436 -145l82 147h27l-66 -260l-96 -29l-438 150l-78 -154h-29z" />
<glyph unicode="&#xd6;" horiz-adv-x="1579" d="M70 690q0 326 180 514.5t561 263.5q158 0 287 -53t220 -148.5t141 -229.5t50 -294q0 -326 -180 -514t-563 -264q-158 0 -286 53.5t-219 148.5t-141 229t-50 294zM432 764q0 -164 30 -300t82 -234.5t125.5 -154t159.5 -55.5q80 0 139.5 53.5t98.5 142.5t58.5 207t19.5 247 q0 162 -30 299t-82 235.5t-124.5 153.5t-158.5 55q-80 0 -140.5 -53t-99.5 -142.5t-58.5 -207t-19.5 -246.5zM449 1712l22 94l141 11l58 -11l14 -112l-25 -99l-139 -12l-59 12zM915 1712l23 94l141 11l58 -11l14 -112l-25 -99l-139 -12l-59 12z" />
<glyph unicode="&#xd7;" d="M233 809l41 43l363 -363l356 359l41 -41l-358 -358l358 -357l-43 -41l-354 357l-361 -361l-40 43l358 359z" />
<glyph unicode="&#xd8;" horiz-adv-x="1579" d="M70 690q0 326 180 514.5t561 263.5q139 0 255 -41t204 -116l127 153h61l-151 -186q98 -96 150 -232.5t52 -302.5q0 -326 -180 -514t-563 -264q-129 0 -235.5 35t-192.5 98l-107 -129h-65l131 160q-111 98 -169 240.5t-58 320.5zM432 764q0 -117 14.5 -217.5t40.5 -186.5 l596 723q-51 154 -137 242t-196 88q-80 0 -140.5 -53t-99.5 -142.5t-58.5 -207t-19.5 -246.5zM508 305q53 -135 135 -210t186 -75q80 0 139.5 53.5t98.5 142.5t58.5 207t19.5 247q0 100 -11.5 190t-31.5 168z" />
<glyph unicode="&#xd9;" horiz-adv-x="1353" d="M20 1401v33h574v-33l-127 -17v-911q0 -86 23.5 -159.5t68.5 -127t109.5 -84t146.5 -30.5q74 0 134.5 30.5t104.5 84t67.5 127t23.5 159.5v911l-133 17v33h321v-33l-129 -17v-907q0 -90 -19.5 -171t-72.5 -147.5t-147.5 -115.5t-241.5 -78q-147 0 -255 38t-179.5 106.5 t-106.5 166t-35 216.5v892zM526 1853h250l94 -278h-47z" />
<glyph unicode="&#xda;" horiz-adv-x="1353" d="M20 1401v33h574v-33l-127 -17v-911q0 -86 23.5 -159.5t68.5 -127t109.5 -84t146.5 -30.5q74 0 134.5 30.5t104.5 84t67.5 127t23.5 159.5v911l-133 17v33h321v-33l-129 -17v-907q0 -90 -19.5 -171t-72.5 -147.5t-147.5 -115.5t-241.5 -78q-147 0 -255 38t-179.5 106.5 t-106.5 166t-35 216.5v892zM754 1575l94 278h250l-299 -278h-45z" />
<glyph unicode="&#xdb;" horiz-adv-x="1353" d="M20 1401v33h574v-33l-127 -17v-911q0 -86 23.5 -159.5t68.5 -127t109.5 -84t146.5 -30.5q74 0 134.5 30.5t104.5 84t67.5 127t23.5 159.5v911l-133 17v33h321v-33l-129 -17v-907q0 -90 -19.5 -171t-72.5 -147.5t-147.5 -115.5t-241.5 -78q-147 0 -255 38t-179.5 106.5 t-106.5 166t-35 216.5v892zM469 1575l264 287h98l265 -287h-45l-263 156h-12l-262 -156h-45z" />
<glyph unicode="&#xdc;" horiz-adv-x="1353" d="M20 1401v33h574v-33l-127 -17v-911q0 -86 23.5 -159.5t68.5 -127t109.5 -84t146.5 -30.5q74 0 134.5 30.5t104.5 84t67.5 127t23.5 159.5v911l-133 17v33h321v-33l-129 -17v-907q0 -90 -19.5 -171t-72.5 -147.5t-147.5 -115.5t-241.5 -78q-147 0 -255 38t-179.5 106.5 t-106.5 166t-35 216.5v892zM436 1712l21 94l143 11l57 -11l15 -112l-25 -99l-141 -12l-57 12zM903 1712l21 94l143 11l57 -11l15 -112l-25 -99l-141 -12l-58 12z" />
<glyph unicode="&#xdd;" horiz-adv-x="1433" d="M10 1401v33h660v-33l-160 -17l369 -741l368 741l-174 17v33h350v-33l-131 -17l-397 -806v-529l197 -16v-33h-713v33l196 16v508l-436 827zM856 1575l94 278h248l-297 -278h-45z" />
<glyph unicode="&#xde;" horiz-adv-x="1216" d="M49 0v33l129 16v1335l-129 17v33h584v-33l-137 -17v-245h252q88 0 168.5 -21.5t142 -67.5t97.5 -117t36 -169q0 -104 -43 -176t-115.5 -121t-170 -82t-208.5 -57h-159v-279l137 -16v-33h-584zM496 367h106q55 0 100.5 27.5t79 77.5t52 120t18.5 153q0 76 -13.5 140.5 t-41 113t-70.5 76t-100 27.5h-131v-735z" />
<glyph unicode="&#xdf;" horiz-adv-x="1267" d="M51 0v33l121 16v860h-121v33l121 4v35q0 49 15.5 102.5t45 103.5t75.5 92t108 71l262 120q201 0 319.5 -65.5t118.5 -204.5q0 -117 -102.5 -203t-261.5 -133q10 -49 54 -89t122 -99l151 -119q72 -57 110 -117.5t38 -138.5q0 -123 -96.5 -211t-262.5 -125q-98 0 -182 18.5 t-143 43.5v315h35l112 -238q37 -37 81 -63.5t101 -26.5q66 0 99 45t33 105q0 51 -34 100t-106 109l-147 129q-35 27 -62.5 53.5t-48 57t-33 68.5t-16.5 89l105 78q76 61 113.5 139t37.5 180q0 47 -9 91.5t-29.5 78t-51.5 53t-74 19.5q-94 0 -142 -74.5t-48 -197.5v-1137 h-408z" />
<glyph unicode="&#xe0;" horiz-adv-x="1054" d="M55 223q0 59 23.5 118.5t89.5 107.5l453 135v184q0 39 -3.5 70.5t-15.5 53t-37.5 33t-70.5 11.5q-25 0 -42.5 -3t-48.5 -13l-41 -271h-268v185l428 167q74 0 125 -4t89 -13t64.5 -23.5t49.5 -34.5q70 -63 70 -228v-442q0 -45 7 -90t19 -88l94 10l4 -33l-366 -73l-49 168 l-281 -181q-61 0 -114.5 15.5t-93.5 47t-62.5 80t-22.5 111.5zM289 1499h239l99 -360h-45zM362 293q0 -80 32 -127t83 -47q31 0 61.5 14t49.5 29l33 22v367l-179 -68q-39 -33 -59.5 -79t-20.5 -111z" />
<glyph unicode="&#xe1;" horiz-adv-x="1054" d="M55 223q0 59 23.5 118.5t89.5 107.5l453 135v184q0 39 -3.5 70.5t-15.5 53t-37.5 33t-70.5 11.5q-25 0 -42.5 -3t-48.5 -13l-41 -271h-268v185l428 167q74 0 125 -4t89 -13t64.5 -23.5t49.5 -34.5q70 -63 70 -228v-442q0 -45 7 -90t19 -88l94 10l4 -33l-366 -73l-49 168 l-281 -181q-61 0 -114.5 15.5t-93.5 47t-62.5 80t-22.5 111.5zM362 293q0 -80 32 -127t83 -47q31 0 61.5 14t49.5 29l33 22v367l-179 -68q-39 -33 -59.5 -79t-20.5 -111zM446 1139l99 360h237l-290 -360h-46z" />
<glyph unicode="&#xe2;" horiz-adv-x="1054" d="M55 223q0 59 23.5 118.5t89.5 107.5l453 135v184q0 39 -3.5 70.5t-15.5 53t-37.5 33t-70.5 11.5q-25 0 -42.5 -3t-48.5 -13l-41 -271h-268v185l428 167q74 0 125 -4t89 -13t64.5 -23.5t49.5 -34.5q70 -63 70 -228v-442q0 -45 7 -90t19 -88l94 10l4 -33l-366 -73l-49 168 l-281 -181q-61 0 -114.5 15.5t-93.5 47t-62.5 80t-22.5 111.5zM215 1139l246 370h86l248 -370h-39l-246 200h-10l-246 -200h-39zM362 293q0 -80 32 -127t83 -47q31 0 61.5 14t49.5 29l33 22v367l-179 -68q-39 -33 -59.5 -79t-20.5 -111z" />
<glyph unicode="&#xe3;" horiz-adv-x="1054" d="M55 223q0 59 23.5 118.5t89.5 107.5l453 135v184q0 39 -3.5 70.5t-15.5 53t-37.5 33t-70.5 11.5q-25 0 -42.5 -3t-48.5 -13l-41 -271h-268v185l428 167q74 0 125 -4t89 -13t64.5 -23.5t49.5 -34.5q70 -63 70 -228v-442q0 -45 7 -90t19 -88l94 10l4 -33l-366 -73l-49 168 l-281 -181q-61 0 -114.5 15.5t-93.5 47t-62.5 80t-22.5 111.5zM154 1169l67 261l94 30l437 -145l82 147h26l-65 -260l-97 -28l-438 149l-78 -154h-28zM362 293q0 -80 32 -127t83 -47q31 0 61.5 14t49.5 29l33 22v367l-179 -68q-39 -33 -59.5 -79t-20.5 -111z" />
<glyph unicode="&#xe4;" horiz-adv-x="1054" d="M55 223q0 59 23.5 118.5t89.5 107.5l453 135v184q0 39 -3.5 70.5t-15.5 53t-37.5 33t-70.5 11.5q-25 0 -42.5 -3t-48.5 -13l-41 -271h-268v185l428 167q74 0 125 -4t89 -13t64.5 -23.5t49.5 -34.5q70 -63 70 -228v-442q0 -45 7 -90t19 -88l94 10l4 -33l-366 -73l-49 168 l-281 -181q-61 0 -114.5 15.5t-93.5 47t-62.5 80t-22.5 111.5zM215 1331l21 94l143 11l57 -11l15 -112l-25 -99l-139 -12l-60 12zM362 293q0 -80 32 -127t83 -47q31 0 61.5 14t49.5 29l33 22v367l-179 -68q-39 -33 -59.5 -79t-20.5 -111zM590 1331l20 94l144 11l57 -11 l14 -112l-24 -99l-142 -12l-57 12z" />
<glyph unicode="&#xe5;" horiz-adv-x="1054" d="M55 223q0 59 23.5 118.5t89.5 107.5l453 135v184q0 39 -3.5 70.5t-15.5 53t-37.5 33t-70.5 11.5q-25 0 -42.5 -3t-48.5 -13l-41 -271h-268v185l428 167q74 0 125 -4t89 -13t64.5 -23.5t49.5 -34.5q70 -63 70 -228v-442q0 -45 7 -90t19 -88l94 10l4 -33l-366 -73l-49 168 l-281 -181q-61 0 -114.5 15.5t-93.5 47t-62.5 80t-22.5 111.5zM279 1327q0 49 19 83t51 58.5t74 42t87 31.5q45 0 87 -10t73.5 -34.5t50 -66t18.5 -100.5q0 -49 -18.5 -84t-49 -59.5t-72.5 -41t-87 -30.5q-43 0 -85 11.5t-75 36t-53 64.5t-20 99zM354 1329q0 -70 44 -112.5 t112 -42.5t112 43t44 112q0 70 -44 114t-112 44t-112 -44t-44 -114zM362 293q0 -80 32 -127t83 -47q31 0 61.5 14t49.5 29l33 22v367l-179 -68q-39 -33 -59.5 -79t-20.5 -111z" />
<glyph unicode="&#xe6;" horiz-adv-x="1546" d="M55 223q0 59 23.5 118.5t89.5 107.5l446 135v184q0 37 -3 68.5t-14 53t-34.5 34t-64.5 12.5q-31 0 -47.5 -3t-44.5 -13l-41 -271h-269v185l424 167q80 0 135.5 -5t94 -18t64.5 -35.5t42 -57.5q55 47 123 73.5t141 42.5q74 0 139.5 -23.5t113.5 -69.5t77 -114.5t29 -160.5 v-84h-592v-23q8 -86 37.5 -148.5t74.5 -104.5t100.5 -61t117.5 -19q72 0 128 18t115 53l21 -26q-49 -49 -94.5 -87t-91.5 -70t-96 -58.5t-107 -53.5q-133 0 -243 56.5t-171 167.5l-330 -224q-61 0 -114.5 15.5t-93.5 47t-62.5 80t-22.5 111.5zM362 293q0 -80 32 -127t83 -47 q31 0 58.5 13t46.5 28l32 22v365l-172 -64q-39 -33 -59.5 -79t-20.5 -111zM881 604.5q0 -10.5 2 -20.5h295q0 178 -25 267t-109 89q-80 0 -119.5 -82t-43.5 -233v-20.5z" />
<glyph unicode="&#xe7;" horiz-adv-x="944" d="M59 440q0 123 43 219.5t115 166t165 113.5t196 62q72 0 154.5 -31.5t144.5 -78.5v-225h-232l-72 274q-23 10 -49 10q-37 0 -73.5 -17.5t-67.5 -57t-49.5 -103t-18.5 -156.5q0 -94 25 -174t71 -137t108.5 -90t139.5 -33q68 0 117 16.5t107 53.5l10 -21q-47 -45 -88 -81.5 t-83 -67.5t-87 -58.5t-98 -54.5l-35 -57q86 -10 130 -55t42 -103q0 -41 -20.5 -70.5t-52.5 -51t-69.5 -39t-74.5 -31.5l-160 -66h-59l67 103h172q45 45 45 108q0 61 -34.5 83t-81.5 28l98 153q-96 4 -177 39t-140.5 95.5t-93.5 145.5t-34 189z" />
<glyph unicode="&#xe8;" horiz-adv-x="995" d="M59 440q0 119 40 214.5t107.5 166t158 115.5t192.5 65q78 0 145.5 -23.5t117.5 -69.5t79 -114.5t29 -160.5v-78h-611q8 -92 40 -159.5t79 -112.5t107.5 -67.5t128.5 -22.5q70 0 125 18t114 53l19 -24q-49 -49 -93 -87t-90.5 -70t-95.5 -59.5t-106 -54.5q-98 0 -187.5 32 t-155 92.5t-104.5 148.5t-39 198zM266 1499h238l98 -360h-45zM315 588h312v88q0 125 -30 194.5t-114 69.5q-88 0 -128 -83t-40 -239v-30z" />
<glyph unicode="&#xe9;" horiz-adv-x="995" d="M59 440q0 119 40 214.5t107.5 166t158 115.5t192.5 65q78 0 145.5 -23.5t117.5 -69.5t79 -114.5t29 -160.5v-78h-611q8 -92 40 -159.5t79 -112.5t107.5 -67.5t128.5 -22.5q70 0 125 18t114 53l19 -24q-49 -49 -93 -87t-90.5 -70t-95.5 -59.5t-106 -54.5q-98 0 -187.5 32 t-155 92.5t-104.5 148.5t-39 198zM315 588h312v88q0 125 -30 194.5t-114 69.5q-88 0 -128 -83t-40 -239v-30zM477 1139l98 360h238l-291 -360h-45z" />
<glyph unicode="&#xea;" horiz-adv-x="995" d="M59 440q0 119 40 214.5t107.5 166t158 115.5t192.5 65q78 0 145.5 -23.5t117.5 -69.5t79 -114.5t29 -160.5v-78h-611q8 -92 40 -159.5t79 -112.5t107.5 -67.5t128.5 -22.5q70 0 125 18t114 53l19 -24q-49 -49 -93 -87t-90.5 -70t-95.5 -59.5t-106 -54.5q-98 0 -187.5 32 t-155 92.5t-104.5 148.5t-39 198zM233 1139l248 370h84l250 -370h-41l-246 200h-10l-246 -200h-39zM315 588h312v88q0 125 -30 194.5t-114 69.5q-88 0 -128 -83t-40 -239v-30z" />
<glyph unicode="&#xeb;" horiz-adv-x="995" d="M59 440q0 119 40 214.5t107.5 166t158 115.5t192.5 65q78 0 145.5 -23.5t117.5 -69.5t79 -114.5t29 -160.5v-78h-611q8 -92 40 -159.5t79 -112.5t107.5 -67.5t128.5 -22.5q70 0 125 18t114 53l19 -24q-49 -49 -93 -87t-90.5 -70t-95.5 -59.5t-106 -54.5q-98 0 -187.5 32 t-155 92.5t-104.5 148.5t-39 198zM225 1331l21 94l143 11l57 -11l15 -112l-25 -99l-139 -12l-59 12zM315 588h312v88q0 125 -30 194.5t-114 69.5q-88 0 -128 -83t-40 -239v-30zM600 1331l21 94l143 11l57 -11l15 -112l-25 -99l-141 -12l-58 12z" />
<glyph unicode="&#xec;" horiz-adv-x="612" d="M53 1499h238l98 -360h-45zM61 913l367 78h35v-942l108 -16v-33h-503v33l108 16v848l-110 -18z" />
<glyph unicode="&#xed;" horiz-adv-x="612" d="M61 913l367 78h35v-942l108 -16v-33h-503v33l108 16v848l-110 -18zM268 1139l97 360h239l-291 -360h-45z" />
<glyph unicode="&#xee;" horiz-adv-x="612" d="M20 1139l248 370h86l248 -370h-39l-248 200h-10l-246 -200h-39zM61 913l367 78h35v-942l108 -16v-33h-503v33l108 16v848l-110 -18z" />
<glyph unicode="&#xef;" horiz-adv-x="612" d="M2 1331l23 94l141 11l57 -11l15 -112l-23 -99l-141 -12l-60 12zM61 913l367 78h35v-942l108 -16v-33h-503v33l108 16v848l-110 -18zM377 1331l22 94l142 11l57 -11l14 -112l-24 -99l-139 -12l-60 12z" />
<glyph unicode="&#xf0;" horiz-adv-x="1153" d="M51 543q0 74 18.5 146.5t59.5 128.5t105.5 92t154.5 36l350 -211q-16 147 -54 269t-134 227l-221 -109v33l200 96q-106 106 -297 201l11 25q117 -35 214 -78t179 -96l209 102v-31l-182 -90q213 -145 310 -338.5t97 -402.5q0 -121 -32.5 -225.5t-96 -182.5t-156 -122 t-211.5 -44q-262 68 -393 209t-131 365zM367 451q0 -223 43 -328t133 -105q96 0 145 137.5t51 389.5q2 35 1 74.5t-1 80.5l-55 29q-47 27 -82 40t-76 13q-159 1 -159 -331z" />
<glyph unicode="&#xf1;" horiz-adv-x="1220" d="M61 913l367 78h35v-213l360 223q80 0 121 -16t68 -43q18 -18 29.5 -37.5t17.5 -46.5t8 -63.5t2 -92.5v-653l119 -16v-33h-494v33l78 16v664q0 66 -23.5 94.5t-70.5 28.5t-81 -16.5t-79 -43.5l-55 -35v-692l78 -16v-33h-473v33l108 16v848l-110 -18zM291 1169l67 258 l95 31l436 -145l82 149h26l-65 -262l-96 -29l-439 150l-80 -152h-26z" />
<glyph unicode="&#xf2;" horiz-adv-x="1114" d="M59 461q0 127 42 217t115 152.5t170 103.5t208 67q98 0 182 -35.5t145.5 -100t96.5 -154.5t35 -199q0 -127 -42 -218t-115 -154.5t-170 -103.5t-210 -67q-98 0 -181 36t-144.5 100.5t-96.5 154.5t-35 201zM299 1499h240l98 -360h-47zM365 545q0 -256 62 -388t153 -132 q80 0 124 96t44 301q0 264 -64 393t-152 129q-80 0 -123.5 -95t-43.5 -304z" />
<glyph unicode="&#xf3;" horiz-adv-x="1114" d="M59 461q0 127 42 217t115 152.5t170 103.5t208 67q98 0 182 -35.5t145.5 -100t96.5 -154.5t35 -199q0 -127 -42 -218t-115 -154.5t-170 -103.5t-210 -67q-98 0 -181 36t-144.5 100.5t-96.5 154.5t-35 201zM365 545q0 -256 62 -388t153 -132q80 0 124 96t44 301 q0 264 -64 393t-152 129q-80 0 -123.5 -95t-43.5 -304zM522 1139l99 360h237l-291 -360h-45z" />
<glyph unicode="&#xf4;" horiz-adv-x="1114" d="M59 461q0 127 42 217t115 152.5t170 103.5t208 67q98 0 182 -35.5t145.5 -100t96.5 -154.5t35 -199q0 -127 -42 -218t-115 -154.5t-170 -103.5t-210 -67q-98 0 -181 36t-144.5 100.5t-96.5 154.5t-35 201zM268 1139l248 370h86l248 -370h-39l-246 200h-12l-246 -200h-39z M365 545q0 -256 62 -388t153 -132q80 0 124 96t44 301q0 264 -64 393t-152 129q-80 0 -123.5 -95t-43.5 -304z" />
<glyph unicode="&#xf5;" horiz-adv-x="1114" d="M59 461q0 127 42 217t115 152.5t170 103.5t208 67q98 0 182 -35.5t145.5 -100t96.5 -154.5t35 -199q0 -127 -42 -218t-115 -154.5t-170 -103.5t-210 -67q-98 0 -181 36t-144.5 100.5t-96.5 154.5t-35 201zM203 1169l69 258l93 31l438 -145l80 149h28l-67 -262l-94 -29 l-441 150l-78 -152h-28zM365 545q0 -256 62 -388t153 -132q80 0 124 96t44 301q0 264 -64 393t-152 129q-80 0 -123.5 -95t-43.5 -304z" />
<glyph unicode="&#xf6;" horiz-adv-x="1114" d="M59 461q0 127 42 217t115 152.5t170 103.5t208 67q98 0 182 -35.5t145.5 -100t96.5 -154.5t35 -199q0 -127 -42 -218t-115 -154.5t-170 -103.5t-210 -67q-98 0 -181 36t-144.5 100.5t-96.5 154.5t-35 201zM258 1331l23 94l141 11l57 -11l15 -112l-25 -99l-139 -12l-60 12 zM365 545q0 -256 62 -388t153 -132q80 0 124 96t44 301q0 264 -64 393t-152 129q-80 0 -123.5 -95t-43.5 -304zM633 1331l20 94l144 11l57 -11l14 -112l-24 -99l-139 -12l-60 12z" />
<glyph unicode="&#xf7;" d="M96 494v57h1075v-57h-1075zM512 150l14 102l160 12l64 -12l12 -119l-14 -106l-162 -13l-62 13zM512 903l14 103l160 12l64 -12l12 -121l-14 -105l-162 -12l-62 12z" />
<glyph unicode="&#xf8;" horiz-adv-x="1114" d="M59 461q0 127 42 217t115 152.5t170 103.5t208 67q88 0 164 -27.5t135 -80.5l92 102h41l-108 -125q63 -66 99 -156.5t36 -201.5q0 -127 -42 -218t-115 -154.5t-170 -103.5t-210 -67q-88 0 -164 28t-135 81l-86 -98h-45l109 120q-63 66 -99.5 157t-36.5 204zM365 545 q0 -131 18 -232l338 383q-29 125 -79.5 186.5t-109.5 61.5q-80 0 -123.5 -95t-43.5 -304zM389 274q29 -123 79 -186t112 -63q80 0 124 96t44 301q0 68 -5.5 127t-13.5 108z" />
<glyph unicode="&#xf9;" horiz-adv-x="1173" d="M27 887v33l370 67h35v-721q0 -131 100 -131q37 0 68 14.5t70 36.5l55 33v678l-104 -10l-3 33l363 67h31v-713q0 -59 6 -101t18 -89l88 6l4 -33l-358 -71l-39 198l-344 -215q-72 0 -119 17.5t-73 42.5q-35 35 -48.5 85t-13.5 158v625zM322 1499h237l98 -360h-45z" />
<glyph unicode="&#xfa;" horiz-adv-x="1173" d="M27 887v33l370 67h35v-721q0 -131 100 -131q37 0 68 14.5t70 36.5l55 33v678l-104 -10l-3 33l363 67h31v-713q0 -59 6 -101t18 -89l88 6l4 -33l-358 -71l-39 198l-344 -215q-72 0 -119 17.5t-73 42.5q-35 35 -48.5 85t-13.5 158v625zM522 1139l96 360h240l-291 -360h-45z " />
<glyph unicode="&#xfb;" horiz-adv-x="1173" d="M27 887v33l370 67h35v-721q0 -131 100 -131q37 0 68 14.5t70 36.5l55 33v678l-104 -10l-3 33l363 67h31v-713q0 -59 6 -101t18 -89l88 6l4 -33l-358 -71l-39 198l-344 -215q-72 0 -119 17.5t-73 42.5q-35 35 -48.5 85t-13.5 158v625zM291 1139l246 370h86l247 -370h-39 l-245 200h-11l-245 -200h-39z" />
<glyph unicode="&#xfc;" horiz-adv-x="1173" d="M27 887v33l370 67h35v-721q0 -131 100 -131q37 0 68 14.5t70 36.5l55 33v678l-104 -10l-3 33l363 67h31v-713q0 -59 6 -101t18 -89l88 6l4 -33l-358 -71l-39 198l-344 -215q-72 0 -119 17.5t-73 42.5q-35 35 -48.5 85t-13.5 158v625zM279 1331l22 94l141 11l58 -11 l14 -112l-25 -99l-139 -12l-59 12zM653 1331l21 94l143 11l57 -11l15 -112l-25 -99l-139 -12l-59 12z" />
<glyph unicode="&#xfd;" horiz-adv-x="1120" d="M10 938v33h512v-33l-106 -16l272 -770l270 770l-118 16v33h270v-33l-96 -16l-291 -828l-272 -575h-287v256h291l221 344l-258 -99l-326 902zM571 1139l99 360h237l-291 -360h-45z" />
<glyph unicode="&#xfe;" horiz-adv-x="1126" d="M37 1395l366 63h35v-659l277 202q80 0 148.5 -32.5t118.5 -93t79 -144.5t29 -186t-21.5 -193.5t-74 -165t-137.5 -129t-212 -88.5q-59 0 -111.5 13.5t-95.5 46.5v-451l164 -16v-33h-561v33l111 16v1798l-111 -18zM438 90q16 -27 48 -43t71 -14q106 0 162.5 107.5 t56.5 291.5q0 84 -11 155.5t-34.5 124t-59.5 82t-83 29.5q-39 0 -63.5 -13t-61.5 -36l-25 -14v-670z" />
<glyph unicode="&#xff;" horiz-adv-x="1120" d="M10 938v33h512v-33l-106 -16l272 -770l270 770l-118 16v33h270v-33l-96 -16l-291 -828l-272 -575h-287v256h291l221 344l-258 -99l-326 902zM350 1331l23 94l141 11l57 -11l15 -112l-25 -99l-139 -12l-60 12zM725 1331l23 94l141 11l57 -11l15 -112l-25 -99l-139 -12 l-60 12z" />
<glyph unicode="&#x152;" horiz-adv-x="2021" d="M70 690q0 326 186 512.5t578 261.5l284 -30h844v-390h-33l-155 351h-461v-625h229l100 256h33v-547h-33l-100 254h-229v-694h469l147 364h33v-403h-963l-204 -31q-164 0 -297 52.5t-228.5 147.5t-147.5 228t-52 293zM432 758q0 -164 30 -299t84 -231.5t128 -150.5 t162 -54l157 26v1335l-217 29q-86 0 -150.5 -53t-107.5 -143.5t-64.5 -209t-21.5 -249.5z" />
<glyph unicode="&#x153;" horiz-adv-x="1724" d="M59 461q0 127 42 217t115 152.5t170 103.5t208 67q117 0 208 -49t150 -137q61 74 148.5 120t185.5 66q78 0 145.5 -23.5t119 -69.5t80 -114.5t28.5 -160.5v-78h-606q-2 -10 -2 -25q8 -84 39.5 -147.5t79 -105t106.5 -63t125 -21.5q70 0 125 18t114 53l19 -24 q-96 -96 -182 -156.5t-201 -114.5q-117 0 -218.5 46t-166.5 139q-68 -70 -163 -114t-212 -71q-98 0 -181 36t-144.5 100.5t-96.5 154.5t-35 201zM362 545q0 -256 61.5 -388t151.5 -132q82 0 127.5 96t45.5 301q0 264 -64 393t-152 129q-80 0 -125 -95t-45 -304zM1044 629 q0 -10 1.5 -20.5t1.5 -20.5h311q0 176 -28 264t-116 88q-78 0 -121.5 -81t-48.5 -230z" />
<glyph unicode="&#x178;" horiz-adv-x="1433" d="M10 1401v33h660v-33l-160 -17l369 -741l368 741l-174 17v33h350v-33l-131 -17l-397 -806v-529l197 -16v-33h-713v33l196 16v508l-436 827zM496 1712l22 94l141 11l58 -11l14 -112l-22 -99l-142 -12l-59 12zM963 1712l22 94l141 11l58 -11l14 -112l-22 -99l-142 -12 l-59 12z" />
<glyph unicode="&#x2c6;" horiz-adv-x="1024" d="M217 1139l248 370h84l250 -370h-41l-246 200h-10l-246 -200h-39z" />
<glyph unicode="&#x2dc;" horiz-adv-x="1024" d="M154 1169l69 258l92 31l439 -145l80 149h28l-67 -262l-95 -29l-440 150l-78 -152h-28z" />
<glyph unicode="&#x2000;" horiz-adv-x="966" />
<glyph unicode="&#x2001;" horiz-adv-x="1933" />
<glyph unicode="&#x2002;" horiz-adv-x="966" />
<glyph unicode="&#x2003;" horiz-adv-x="1933" />
<glyph unicode="&#x2004;" horiz-adv-x="644" />
<glyph unicode="&#x2005;" horiz-adv-x="483" />
<glyph unicode="&#x2006;" horiz-adv-x="322" />
<glyph unicode="&#x2007;" horiz-adv-x="322" />
<glyph unicode="&#x2008;" horiz-adv-x="241" />
<glyph unicode="&#x2009;" horiz-adv-x="386" />
<glyph unicode="&#x200a;" horiz-adv-x="107" />
<glyph unicode="&#x2010;" horiz-adv-x="788" d="M82 524v92h625v-92h-625z" />
<glyph unicode="&#x2011;" horiz-adv-x="788" d="M82 524v92h625v-92h-625z" />
<glyph unicode="&#x2012;" horiz-adv-x="788" d="M82 524v92h625v-92h-625z" />
<glyph unicode="&#x2013;" horiz-adv-x="983" d="M82 541v59h819v-59h-819z" />
<glyph unicode="&#x2014;" horiz-adv-x="1781" d="M72 541v59h1638v-59h-1638z" />
<glyph unicode="&#x2018;" horiz-adv-x="518" d="M133 1006l23 120l202 324l25 -10l-147 -307l102 6l65 -13l13 -139l-23 -110l-178 -13l-70 13z" />
<glyph unicode="&#x2019;" horiz-adv-x="507" d="M102 1331l23 111l178 12l70 -12l12 -129l-23 -121l-202 -324l-27 11l150 307l-103 -6l-65 12z" />
<glyph unicode="&#x201a;" horiz-adv-x="425" d="M82 162l22 110l179 13l69 -13l13 -129l-23 -120l-203 -324l-26 10l149 307l-102 -8l-66 15z" />
<glyph unicode="&#x201c;" horiz-adv-x="813" d="M92 1006l23 120l202 322l25 -10l-147 -305l102 6l65 -13l13 -141l-23 -111l-178 -10l-70 10zM469 1006l23 120l202 322l25 -10l-148 -305l103 6l63 -13l15 -141l-23 -111l-178 -10l-70 10z" />
<glyph unicode="&#x201d;" horiz-adv-x="813" d="M92 1335l23 111l178 10l69 -10l13 -131l-23 -121l-202 -322l-27 11l149 305l-102 -6l-66 12zM469 1335l23 111l178 10l69 -10l13 -131l-23 -121l-205 -322l-24 11l149 305l-102 -6l-66 12z" />
<glyph unicode="&#x201e;" horiz-adv-x="813" d="M92 162l23 110l178 13l69 -13l13 -129l-23 -120l-202 -324l-27 10l149 307l-102 -8l-66 15zM469 162l23 110l178 13l69 -13l13 -129l-23 -120l-205 -324l-24 10l149 307l-102 -8l-66 15z" />
<glyph unicode="&#x2022;" horiz-adv-x="487" d="M102 631l17 121l174 10l80 -10l12 -138l-16 -122l-176 -11l-78 11z" />
<glyph unicode="&#x2026;" horiz-adv-x="1699" d="M154 145l24 121l187 15l67 -15l17 -141l-27 -125l-186 -14l-68 14zM702 145l25 121l186 15l68 -15l16 -141l-28 -125l-185 -14l-67 14zM1251 145l25 121l186 15l68 -15l16 -141l-28 -125l-187 -14l-65 14z" />
<glyph unicode="&#x202f;" horiz-adv-x="386" />
<glyph unicode="&#x2039;" horiz-adv-x="604" d="M102 481l375 451h45l-264 -453l264 -448h-49z" />
<glyph unicode="&#x203a;" horiz-adv-x="604" d="M102 31l265 448l-265 453h45l375 -451l-370 -450h-50z" />
<glyph unicode="&#x205f;" horiz-adv-x="483" />
<glyph unicode="&#x20ac;" horiz-adv-x="1372" d="M92 588v39h82v57q0 31 2 61.5t6 61.5h-90v39h96q47 252 226.5 413.5t457.5 206.5q125 0 232.5 -29.5t179.5 -70.5v-401h-35l-168 362q-45 53 -95 79t-120 26q-72 0 -134 -37t-109.5 -111t-76 -183.5t-34.5 -254.5h524l-30 -39h-494v-25q0 -41 2 -79.5t6 -75.5h381 l-31 -39h-346q14 -102 45 -190.5t81 -153t121 -102.5t165 -38q43 0 89 11.5t90 28t84 38t73 43.5l18 -35q-33 -27 -79 -58.5t-102 -61t-120.5 -56t-132.5 -45.5q-119 0 -233.5 33t-209 106.5t-157.5 191.5t-78 288h-86z" />
<glyph unicode="&#x2122;" horiz-adv-x="2007" d="M102 1198v236h695v-236h-23l-112 213h-107v-735l102 -8v-23h-417v23l102 8v735h-104l-113 -213h-23zM838 645v23l69 8v727l-69 10v21h301l250 -584l235 584h281v-21l-74 -10v-727l74 -8v-23h-349v23l64 8v665l-283 -702h-104l-297 735v-698l78 -8v-23h-176z" />
<glyph unicode="&#x25fc;" horiz-adv-x="972" d="M0 0v973h973v-973h-973z" />
</font>
</defs>
</svg>
